<?xml version="1.0" standalone="no"?>
<!DOCTYPE svg PUBLIC "-//W3C//DTD SVG 1.1//EN" "http://www.w3.org/Graphics/SVG/1.1/DTD/svg11.dtd" >
<svg xmlns="http://www.w3.org/2000/svg">
<metadata>Generated by IcoMoon</metadata>
<defs>
<font id="webmapp" horiz-adv-x="1024">
<font-face units-per-em="1024" ascent="960" descent="-64" />
<missing-glyph horiz-adv-x="1024" />
<glyph unicode="&#x20;" horiz-adv-x="512" d="" />
<glyph unicode="&#xe900;" glyph-name="alpine-hut-cai" d="M912.288 522.633l-372.352 325.824c0 0 0 0 0 0v0 0c-9.312 9.312-18.624 9.312-37.248 9.312s-27.936-9.312-37.248-9.312v0 0c0 0 0 0 0 0l-372.352-325.824c-18.624-9.312-18.624-37.248-9.312-46.56 9.312-18.624 27.936-27.936 46.56-27.936h83.776v-372.352c0-27.936 18.624-46.56 46.56-46.56h474.752c27.936 0 46.56 18.624 46.56 46.56v372.352h83.776c18.624 0 37.248 9.312 46.56 27.936 18.624 9.312 18.624 27.936 0 46.56z" />
<glyph unicode="&#xe901;" glyph-name="alpine-hut" d="M1024 360.425l-512 397.44-512-397.44v162.048l512 397.44 512-397.44zM896 374.857v-384h-256v256h-256v-256h-256v384l384 288z" />
<glyph unicode="&#xe902;" glyph-name="bus" d="M757.184 900.393h-490.368c-79.328 0-144.224-64.896-144.224-144.224v-540.832c0-43.264 21.632-86.528 57.696-108.16v-122.592h100.96v93.76h454.304v-93.76h100.96v122.592c28.832 28.832 57.696 64.896 57.696 108.16v540.832c7.2 79.328-57.696 144.224-137.024 144.224zM201.92 741.737c0 36.064 28.832 72.128 72.128 72.128h475.936c36.064 0 72.128-28.832 72.128-72.128v-252.384c0-36.064-28.832-72.128-72.128-72.128h-475.936c-36.064 0-72.128 28.832-72.128 72.128v252.384zM281.248 179.241c-28.832 0-57.696 28.832-57.696 57.696s28.832 57.696 57.696 57.696c28.832 0 57.696-28.832 57.696-57.696s-14.432-57.696-57.696-57.696zM728.352 179.241c-28.832 0-57.696 28.832-57.696 57.696s28.832 57.696 57.696 57.696c28.832 0 57.696-28.832 57.696-57.696s-14.432-57.696-57.696-57.696z" />
<glyph unicode="&#xe903;" glyph-name="camp-site" d="M512 818.313c-28.832 0-36.064-14.432-50.464-28.832l-331.712-620.16h-72.128c-28.832 0-57.696-21.632-57.696-50.464s28.832-50.464 57.696-50.464h901.408c28.832 0 57.696 21.632 57.696 50.464s-28.832 50.464-57.696 50.464h-72.128l-331.712 620.16c-7.2 14.432-14.432 28.832-43.264 28.832zM512 544.297l187.488-374.976h-374.976l187.488 374.976z" />
<glyph unicode="&#xe904;" glyph-name="church" d="M512 922.057c-70.4 0-70.4-70.4-70.4-70.4v-208h-275.2v-137.6h275.2v-553.6h137.6v553.6h275.2v137.6h-275.2v208c3.2 0 3.2 70.4-67.2 70.4z" />
<glyph unicode="&#xe905;" glyph-name="farm" d="M512 918.857l-512-512 96-96 96 96v-416h256v192h128v-192h256v416l96-96 96 96-512 512zM512 502.857c-35.2 0-64 28.8-64 64s28.8 64 64 64 64-28.8 64-64-28.8-64-64-64z" />
<glyph unicode="&#xe906;" glyph-name="fc-corpo-forestale" d="M1009.568 676.841h-346.144c0 0-28.832 7.2-64.896-7.2-21.632-21.632-50.464-50.464-57.696-64.896 0 0-7.2-7.2-7.2-14.432-7.2-7.2-14.432-14.432-14.432-21.632 0 0 0-14.432-7.2-21.632 0 0-7.2 0-7.2 0s-14.432 0-36.064 28.832c-14.432 14.432-28.832 28.832-36.064 36.064-21.632 36.064-28.832 36.064-50.464 43.264-7.2 0-43.264 0-108.16 0-108.16 0-259.616 0-259.616 0s-7.2 0-7.2 0c0 0 0-7.2 0-7.2s14.432-14.432 57.696-28.832c21.632-7.2 43.264-14.432 64.896-21.632 36.064-14.432 57.696-14.432 72.128-14.432 7.2 0 28.832-7.2 43.264-7.2 7.2 0 14.432 0 14.432-7.2 14.432-7.2 36.064-14.432 36.064-14.432s0 0 0 0 0 0 0 0c-14.432 0-28.832-7.2-36.064-7.2s-14.432 0-21.632-14.432c-7.2-21.632-14.432-43.264-14.432-43.264s0-7.2 0-7.2c0 0 7.2 0 7.2 0l36.064 14.432c7.2 0 43.264 0 57.696 0h7.2c7.2 0 7.2 0 21.632-14.432 7.2-7.2 28.832-28.832 50.464-43.264 14.432-14.432 28.832-21.632 36.064-28.832s14.432-64.896 14.432-72.128c-7.2-14.432-14.432-21.632-21.632-21.632v0c-7.2 0-21.632-7.2-28.832 0s-14.432 7.2-21.632 14.432v28.832c0 0 0 7.2-7.2 7.2h-36.064c0 0 0 0-7.2 0l-7.2-21.632-14.432 7.2c0 0-7.2 0-7.2 0s0-7.2 0-7.2l7.2-14.432-50.464-43.264c0 0 0 0 0-7.2 0 0 0-7.2 0-7.2 7.2-7.2 57.696-36.064 79.328-36.064 0 0 0 0 0 0s7.2 0 7.2 7.2c14.432 7.2 14.432 43.264 14.432 57.696l64.896-21.632 7.2-72.128c0 0 0-7.2 7.2-7.2h144.224c0 0 7.2 0 7.2 7.2l7.2 72.128 57.696 21.632c0-14.432 0-50.464 14.432-64.896 0 0 7.2-7.2 7.2-7.2s0 0 0 0c21.632 0 72.128 36.064 79.328 36.064 0 0 0 0 0 7.2 0 0 0 7.2 0 7.2l-50.464 43.264 7.2 14.432c0 0 0 7.2 0 7.2s-7.2 0-7.2 0h-14.432l-7.2 14.432c0 0 0 0-7.2 0h-36.064c0 0 0 0 0 0s-7.2 0-7.2-7.2v-21.632c-7.2 0-14.432-7.2-21.632-14.432s-14.432 0-21.632 0l7.2 79.328c0 0 14.432 7.2 28.832 7.2 7.2 0 14.432 0 21.632-7.2 36.064-14.432 50.464-14.432 64.896-14.432s28.832 7.2 43.264 14.432c0 0 36.064 28.832 36.064 28.832l36.064 28.832c0 0 0 7.2 0 7.2s0 7.2-7.2 7.2c0 0-100.96 0-129.792 7.2s-50.464 21.632-57.696 28.832c-7.2 0-14.432 14.432-14.432 21.632 0 0 0 7.2 7.2 7.2s21.632 0 36.064 7.2c28.832 0 57.696 7.2 72.128 14.432s57.696 28.832 72.128 36.064c7.2 0 14.432 7.2 21.632 7.2 21.632-7.2 36.064 0 43.264 7.2s21.632 14.432 36.064 14.432c7.2 7.2 14.432 7.2 21.632 7.2s50.464 21.632 86.528 36.064c0 0 0 7.2-7.2 14.432 7.2-7.2 7.2 0 0 0z" />
<glyph unicode="&#xe907;" glyph-name="fc-planetario" d="M393.6 643.657l-6.4-6.4c-3.2 0-3.2-3.2-3.2-3.2 0-3.2 0-3.2 0-3.2 0-3.2 0-3.2 0-3.2 0-3.2 0-3.2 0-3.2 0-3.2-3.2-3.2-3.2-6.4-3.2-6.4-3.2-9.6-3.2-12.8-3.2-6.4 0-12.8 0-16 6.4-22.4 28.8-32 54.4-28.8 9.6 0 19.2 6.4 28.8 6.4 3.2 0 3.2 0 6.4 0 6.4 0 12.8-9.6 12.8-16s-3.2-12.8-6.4-16c-6.4-6.4-16-6.4-25.6-6.4-16 0-32 3.2-48 3.2-3.2-3.2-9.6-3.2-12.8-3.2-25.6-6.4-41.6-22.4-54.4-41.6 0-3.2-3.2-3.2-3.2-6.4-6.4-9.6-12.8-22.4-12.8-35.2 0-3.2 0-9.6 0-12.8v0c3.2-3.2 3.2-6.4 3.2-12.8 0-3.2 0-6.4 0-9.6 3.2-6.4 6.4-12.8 12.8-19.2 0-3.2 3.2-3.2 3.2-3.2 9.6-3.2 22.4-6.4 32-12.8 0 0 3.2 0 3.2 0 9.6 3.2 16 9.6 22.4 16 3.2 6.4 6.4 12.8 9.6 19.2s6.4 16 6.4 25.6c0 3.2 0 6.4 0 9.6 3.2 22.4 16 38.4 35.2 41.6 3.2 0 6.4 0 9.6 0 9.6-3.2 19.2-12.8 22.4-22.4 0-3.2 0-9.6 0-16v-3.2c0-6.4-3.2-9.6-6.4-12.8-6.4-3.2-9.6-9.6-16-9.6-6.4-3.2-12.8-3.2-16-3.2-3.2-3.2-3.2-3.2-6.4-3.2-12.8-3.2-25.6-16-28.8-32-3.2-6.4-3.2-16 0-22.4 19.2-6.4 35.2-12.8 54.4-16 3.2 3.2 6.4 6.4 9.6 9.6 6.4 3.2 9.6 9.6 12.8 16 6.4 12.8 19.2 25.6 35.2 28.8 9.6 0 19.2 3.2 28.8 0 19.2-3.2 32-22.4 38.4-41.6 3.2-12.8 6.4-28.8 6.4-44.8v-3.2c12.8-3.2 25.6-6.4 38.4-9.6 0 3.2 0 9.6 0 12.8 0 12.8 0 28.8-3.2 41.6 0 16-3.2 32-6.4 48-6.4 28.8-12.8 54.4-22.4 83.2-3.2 12.8-9.6 25.6-16 38.4-16 35.2-38.4 70.4-64 102.4-9.6 9.6-19.2 16-28.8 25.6-6.4 3.2-9.6 6.4-16 9.6-3.2 3.2-6.4 3.2-9.6 3.2s-9.6 0-16 0-16-3.2-19.2-3.2c-3.2-3.2-3.2-3.2-6.4-3.2 0 0 0 0-3.2 0 0 0 0 0 0 0-6.4-6.4-12.8-9.6-22.4-16 3.2 0 0 0 0 0zM320 406.857c0 3.2-3.2 9.6-3.2 12.8s0 3.2 0 6.4c-3.2 3.2-6.4 6.4-12.8 6.4h-3.2c-6.4-6.4-9.6-19.2-6.4-28.8 0-3.2 0-6.4 3.2-9.6 6.4-3.2 9.6-3.2 16-6.4 3.2 3.2 6.4 9.6 6.4 16 0 3.2 0 3.2 0 3.2zM656 240.457c-3.2 0-3.2 0-3.2 0-22.4 3.2-41.6 9.6-64 12.8 0-3.2 0-6.4 0-9.6s0-9.6 0-12.8c3.2-9.6 6.4-19.2 16-22.4 3.2 0 3.2 0 3.2 0h3.2c0 0 0 0 3.2 0h3.2c3.2 0 3.2 0 3.2 0h6.4c3.2 0 3.2 0 3.2 0 3.2 0 3.2 0 3.2 0 0-3.2 0-3.2 0-3.2-6.4-6.4-16-9.6-25.6-12.8-3.2 0-3.2 0-3.2 0-3.2 0-3.2 0-3.2 0-3.2 0-6.4-3.2-9.6-3.2s-9.6-3.2-16-3.2c0 0-3.2 0-6.4 0-22.4-3.2-51.2-3.2-76.8 0-3.2 0-3.2 0-6.4 0-6.4 0-9.6 3.2-16 3.2h-9.6c-3.2 3.2-3.2 3.2-6.4 3.2-70.4 22.4-128 76.8-156.8 147.2-19.2 6.4-35.2 12.8-54.4 19.2 28.8-128 147.2-220.8 288-220.8 83.2 0 156.8 32 211.2 86.4-25.6 3.2-54.4 9.6-86.4 16v0 0zM281.6 432.457c0 89.6 48 169.6 118.4 211.2 0 0 0 0 0 0s3.2 0 3.2 3.2c0 0 3.2 0 3.2 3.2 0 0 0 0 3.2 0s3.2 3.2 3.2 3.2h3.2c0 0 0 0 3.2 0 28.8 16 64 25.6 99.2 25.6 28.8 0 54.4-6.4 70.4-22.4 6.4-3.2 6.4-9.6 9.6-16 0-6.4 0-16 3.2-22.4 3.2-9.6 6.4-16 16-16s12.8 6.4 12.8 16c0 3.2 0 6.4 0 9.6s-3.2 6.4-3.2 12.8c0 3.2 0 6.4 3.2 9.6s6.4 3.2 9.6 3.2c9.6 0 22.4-6.4 32-12.8 6.4-3.2 12.8-9.6 19.2-12.8 6.4-6.4 12.8-9.6 12.8-16 3.2-3.2 3.2-6.4 0-9.6-3.2 0-6.4-3.2-9.6-3.2s-3.2 0-6.4 0c-12.8 0-25.6-6.4-25.6-22.4 0-6.4 3.2-9.6 3.2-12.8 3.2-9.6 9.6-16 16-19.2 3.2 0 6.4 0 9.6 0 9.6 3.2 9.6 12.8 12.8 19.2 0 3.2 0 3.2 0 6.4 3.2 3.2 3.2 9.6 6.4 12.8 0 3.2 0 6.4 3.2 6.4s6.4 0 9.6 0c3.2-3.2 3.2-3.2 6.4-3.2l3.2-3.2c6.4-6.4 9.6-12.8 16-22.4 3.2-6.4 9.6-16 12.8-25.6 3.2-3.2 3.2-9.6 6.4-16 0-9.6 3.2-16 3.2-22.4s0-16-3.2-22.4c-3.2-12.8-12.8-22.4-28.8-22.4-12.8 3.2-19.2 9.6-35.2 9.6-12.8 0-22.4-9.6-25.6-25.6 0-3.2 0-6.4 0-6.4 0-12.8 9.6-22.4 22.4-22.4 0 0 3.2 0 6.4 0 9.6 0 16 6.4 25.6 6.4 16 0 25.6-12.8 28.8-28.8 0-6.4 0-12.8 0-19.2v-6.4c0 0 0 0 0-3.2s0-3.2 0-3.2c0-3.2-3.2-3.2-3.2-6.4 0 0-3.2 0-3.2-3.2-3.2-3.2-3.2-3.2-3.2-3.2-3.2 0-3.2-3.2-3.2-3.2 0-3.2 0-3.2 0-3.2 0-3.2 0-3.2 0-3.2l-6.4-6.4c0 0-3.2-3.2-6.4-3.2s-9.6 0-12.8 0c-6.4 0-9.6 3.2-12.8 6.4 0 3.2-3.2 3.2-3.2 6.4-3.2 0-6.4 3.2-9.6 3.2-9.6 0-12.8-6.4-16-12.8s-3.2-16 0-22.4c0-3.2 3.2-6.4 6.4-9.6 35.2-6.4 67.2-9.6 96-12.8 0 0 0 0 3.2 0 28.8 41.6 44.8 92.8 44.8 147.2 0 156.8-131.2 281.6-294.4 281.6s-294.4-124.8-294.4-281.6c0 0 0 0 0 0 12.8-6.4 28.8-12.8 44.8-19.2-6.4 3.2-6.4 16-6.4 25.6zM780.8 422.857c0-6.4 0-16-3.2-22.4 0-3.2-3.2-6.4-6.4-6.4s-3.2 0-6.4 0c-3.2 3.2-3.2 6.4-3.2 9.6-3.2 6.4 0 16 3.2 22.4 3.2 3.2 6.4 6.4 9.6 6.4s6.4-6.4 6.4-9.6zM259.2 534.857c3.2 6.4 6.4 12.8 12.8 22.4-147.2 22.4-252.8 19.2-262.4-12.8 0-6.4 0-9.6 3.2-16 22.4 25.6 115.2 28.8 246.4 6.4zM1014.4 269.257c16 22.4-60.8 76.8-185.6 128 0-6.4-3.2-16-3.2-22.4 102.4-41.6 169.6-86.4 182.4-115.2 3.2 3.2 3.2 6.4 6.4 9.6zM784 250.057c70.4-6.4 112 0 118.4 19.2 0 3.2 0 9.6 0 12.8-16-12.8-57.6-16-118.4-9.6-3.2-6.4-9.6-12.8-16-22.4 6.4 0 9.6 0 16 0zM233.6 397.257c3.2 0 3.2 0 3.2 0s0 0 0 0c0 6.4 0 16 0 22.4 0 0-3.2 0-3.2 0-57.6 28.8-99.2 54.4-112 73.6 0-3.2-3.2-3.2-3.2-6.4-3.2-19.2 41.6-54.4 115.2-89.6zM684.8 285.257c3.2-3.2 6.4-3.2 12.8-6.4s9.6-3.2 12.8-6.4l3.2-3.2c0-3.2 0-3.2 0-6.4v-3.2c16-3.2 32-3.2 44.8-6.4 3.2 0 6.4 0 9.6 0 6.4 6.4 9.6 12.8 16 22.4 0 0 0 0-3.2 0-28.8 0-60.8 6.4-96 9.6zM406.4 355.657c6.4-9.6 16-19.2 25.6-22.4 6.4 0 9.6 0 16 0 3.2 0 9.6 3.2 12.8 6.4-19.2 6.4-38.4 12.8-54.4 16-3.2 0-3.2 0 0 0zM595.2 304.457v0c0-6.4 0-12.8 0-19.2 16-3.2 28.8-6.4 41.6-9.6 0 6.4-3.2 12.8-3.2 19.2-12.8 3.2-25.6 6.4-38.4 9.6zM355.2 368.457c3.2 0 6.4 0 12.8 0-9.6 3.2-22.4 6.4-32 12.8 6.4-6.4 12.8-9.6 19.2-12.8zM288 374.857c-3.2 9.6-3.2 16-3.2 25.6-16 6.4-32 12.8-44.8 19.2 0-6.4 0-16 0-22.4 12.8-6.4 28.8-16 48-22.4zM300.8 390.857c3.2-3.2 6.4-6.4 12.8-3.2 0 0 0 0 0 0-6.4 3.2-12.8 3.2-16 6.4 0 0 0 0 3.2-3.2zM483.2 314.057c38.4-9.6 73.6-19.2 108.8-28.8 0 6.4 0 12.8 0 19.2v0c-32 6.4-67.2 16-102.4 25.6-12.8 3.2-22.4 6.4-35.2 9.6-3.2-3.2-6.4-6.4-12.8-6.4s-9.6 0-16 0c-9.6 3.2-19.2 12.8-25.6 22.4 0 0 0 0 0 0-12.8 3.2-22.4 6.4-35.2 12.8-6.4 0-9.6 0-12.8 0-6.4 3.2-12.8 6.4-19.2 12.8-6.4 3.2-16 6.4-22.4 9.6 0 0 0 0 0 0-6.4-3.2-9.6 0-12.8 3.2 0 0-3.2 3.2-3.2 3.2-3.2 3.2-9.6 3.2-12.8 6.4 0-9.6 3.2-16 3.2-25.6 9.6-3.2 19.2-9.6 28.8-12.8 54.4-19.2 112-38.4 169.6-51.2zM636.8 275.657c25.6-6.4 51.2-9.6 76.8-16v3.2c0 3.2 0 3.2 0 6.4l-3.2 3.2c-3.2 3.2-6.4 3.2-12.8 6.4s-9.6 3.2-12.8 6.4c-16 3.2-32 6.4-51.2 9.6 0-6.4 0-12.8 3.2-19.2zM233.6 394.057c0 0 3.2 0 3.2-3.2 0 0 0 3.2 0 3.2s0 0 0 0 0 0-3.2 0c-76.8 35.2-118.4 70.4-115.2 92.8 0 3.2 3.2 3.2 3.2 6.4-3.2 6.4-6.4 12.8-3.2 16 6.4 19.2 57.6 25.6 137.6 19.2 0 0 0 3.2 0 3.2-128 19.2-224 19.2-249.6-6.4 19.2-32 105.6-83.2 227.2-131.2zM825.6 374.857c0-3.2 0-3.2 0-6.4 57.6-28.8 92.8-57.6 86.4-76.8 0-3.2-3.2-6.4-9.6-9.6 3.2-6.4 3.2-9.6 0-12.8-6.4-19.2-51.2-25.6-118.4-19.2 115.2-16 198.4-16 224 9.6-12.8 28.8-83.2 73.6-182.4 115.2zM240 397.257c0 0 0-3.2 0-3.2 16-6.4 32-12.8 48-19.2 0 0 0 0 0 0-19.2 6.4-35.2 16-48 22.4zM288 374.857c0 0 0 0 0 0 9.6-6.4 19.2-9.6 28.8-12.8-9.6 6.4-19.2 9.6-28.8 12.8z" />
<glyph unicode="&#xe908;" glyph-name="fc-sede" d="M814.88 431.657c-28.832-14.432-50.464-7.2-64.896 7.2-7.2 7.2-7.2 21.632 0 28.832 7.2 21.632 36.064 28.832 72.128 14.432 7.2 0 14.432 0 28.832 0 57.696 0 100.96 43.264 108.16 115.392 7.2 43.264-14.432 108.16-57.696 144.224-14.432 14.432-36.064 21.632-57.696 21.632-14.432 0-43.264-7.2-57.696-36.064-14.432-21.632-21.632-36.064-21.632-57.696 0-7.2-7.2-14.432-7.2-21.632-7.2-14.432-14.432-21.632-28.832-14.432-7.2 14.432-21.632 28.832-21.632 43.264 0 21.632 14.432 43.264 50.464 57.696 43.264 21.632 64.896 50.464 57.696 86.528s-50.464 72.128-86.528 72.128c-21.632 0-43.264-7.2-64.896-28.832-28.832-21.632-28.832-57.696-21.632-72.128 7.2-28.832 7.2-43.264 0-50.464 0 0-7.2-7.2-14.432-7.2-14.432 0-14.432 7.2-21.632 36.064 0 14.432-7.2 36.064-14.432 50.464-7.2 50.464-57.696 100.96-144.224 100.96-36.064 0-72.128-7.2-115.392-28.832 0 0 0 0 0 0s0 0 0 0c-93.76-43.264-158.656-108.16-209.12-187.488-137.024-237.984-64.896-540.832 173.056-685.056 72.128-43.264 158.656-64.896 245.184-64.896 108.16 0 223.552 36.064 310.080 108.16 0 0 0 7.2 0 7.2s0 0 0 0 0 0 0 0 7.2 0 7.2 0c14.432 14.432 28.832 36.064 28.832 50.464s0 36.064-14.432 43.264c-21.632 21.632-43.264 36.064-64.896 43.264h-7.2c-28.832 14.432-43.264 36.064-43.264 57.696 0 7.2 0 14.432 7.2 21.632s14.432 0 21.632-7.2c7.2-7.2 7.2-7.2 21.632-14.432s28.832-14.432 43.264-14.432c36.064 0 64.896 28.832 72.128 43.264 14.432 28.832 14.432 64.896 0 93.76-7.2 50.464-57.696 64.896-108.16 43.264zM800.448 63.881c-21.632 0-43.264 7.2-64.896 21.632-43.264 36.064-43.264 100.96-43.264 144.224 0 14.432 0 28.832 0 36.064-7.2 43.264-28.832 151.424-100.96 151.424 0 0 0 0-7.2 0-57.696-7.2-79.328-36.064-93.76-64.896s-28.832-50.464-50.464-50.464c-7.2 0-14.432 0-21.632 7.2-14.432 7.2-21.632 21.632-28.832 36.064 0 21.632 7.2 43.264 28.832 57.696 14.432 7.2 21.632 7.2 28.832 7.2s7.2 0 7.2 0c14.432 7.2 28.832 21.632 36.064 36.064 7.2 21.632 0 36.064-14.432 50.464-14.432 28.832-43.264 36.064-64.896 21.632-21.632-7.2-36.064-36.064-36.064-79.328 0-36.064-21.632-72.128-28.832-79.328-14.432-14.432-28.832-21.632-50.464-21.632-28.832 0-57.696 21.632-72.128 50.464-21.632 36.064-14.432 86.528 21.632 137.024 28.832 36.064 64.896 50.464 108.16 50.464 14.432 0 28.832 0 43.264 0s21.632 0 36.064 0 36.064 14.432 43.264 28.832c7.2 14.432 0 28.832-7.2 43.264-14.432 7.2-36.064 7.2-64.896-7.2-7.2 0-14.432-7.2-21.632-7.2s-21.632-7.2-28.832-7.2c-14.432 7.2-28.832 7.2-57.696 36.064-28.832 43.264-43.264 137.024 36.064 209.12 36.064-28.832 187.488-173.056 266.816-310.080 72.128-108.16 100.96-230.752 122.592-310.080 7.2-36.064 21.632-72.128 28.832-86.528 21.632-43.264 64.896-72.128 93.76-86.528-7.2-7.2-21.632-14.432-43.264-14.432z" />
<glyph unicode="&#xe909;" glyph-name="fc-utb" d="M800 301.257c3.2 3.2 6.4 9.6 12.8 12.8 19.2 19.2 35.2 35.2 44.8 60.8 12.8 35.2-12.8 67.2-32 92.8-3.2 3.2-6.4 6.4-6.4 9.6l-3.2 6.4-108.8-99.2c6.4 6.4 9.6 16 16 22.4 12.8 19.2 25.6 38.4 38.4 54.4 16 22.4 32 48 12.8 76.8-9.6 16-22.4 32-38.4 48-6.4 6.4-12.8 16-19.2 22.4l-6.4 6.4-76.8-166.4c0 3.2 3.2 3.2 3.2 6.4 6.4 12.8 9.6 28.8 16 41.6 12.8 32 25.6 64 35.2 99.2 6.4 16 9.6 38.4 0 54.4-12.8 19.2-28.8 38.4-48 57.6-6.4 9.6-16 16-22.4 25.6l-6.4 9.6-70.4-304c0 0 0 3.2 0 3.2 3.2 22.4 6.4 48 6.4 70.4 6.4 54.4 12.8 112 22.4 166.4 19.2 89.6-22.4 156.8-60.8 220.8l-3.2 6.4-6.4-6.4c-3.2-3.2-6.4-6.4-6.4-9.6-6.4-6.4-9.6-12.8-12.8-19.2-32-48-64-99.2-96-147.2-70.4-108.8-144-220.8-214.4-329.6-54.4-83.2-64-176-22.4-275.2 16-38.4 48-76.8 83.2-96 25.6-12.8 51.2-19.2 86.4-19.2 16 0 32 0 44.8 3.2 16 0 32 3.2 48 3.2 12.8 0 22.4 0 32-3.2h9.6l-35.2 64-6.4-3.2c-32-12.8-64-19.2-89.6-19.2-38.4 0-67.2 16-86.4 41.6 3.2 0 6.4 0 9.6 0 16 0 28.8-3.2 44.8-3.2 12.8 0 28.8-3.2 41.6-6.4 6.4 0 12.8-3.2 19.2-3.2h6.4l3.2 19.2h-6.4c-9.6 3.2-22.4 6.4-32 9.6-25.6 6.4-51.2 12.8-76.8 22.4-54.4 16-80 48-76.8 105.6 0 16 6.4 16 9.6 16s6.4 0 12.8-3.2h3.2c28.8-9.6 54.4-22.4 83.2-32 12.8-3.2 25.6-6.4 38.4-6.4 19.2 0 38.4 6.4 51.2 19.2l9.6 9.6h-12.8c-9.6 0-22.4 3.2-32 3.2-25.6 3.2-48 3.2-67.2 9.6-32 12.8-54.4 28.8-60.8 51.2s3.2 51.2 28.8 80l236.8-140.8 3.2 6.4c9.6 28.8-9.6 44.8-28.8 57.6-41.6 22.4-83.2 48-118.4 70.4-41.6 25.6-57.6 38.4-60.8 54.4s12.8 38.4 41.6 70.4c0 0 0 0 3.2 0 0 0 3.2 0 3.2 0l176-179.2-3.2 19.2c-3.2 16-6.4 35.2-19.2 48-19.2 25.6-41.6 48-64 70.4-9.6 9.6-16 19.2-25.6 25.6-54.4 57.6-54.4 64-6.4 128v3.2c0 0 0 3.2 3.2 3.2 9.6 9.6 16 16 19.2 16s9.6-6.4 16-19.2c19.2-38.4 38.4-76.8 54.4-115.2 6.4-16 12.8-28.8 19.2-41.6l6.4-16 3.2 16c9.6 44.8-12.8 89.6-35.2 134.4l-3.2 3.2c-44.8 86.4-19.2 160 67.2 214.4 3.2-6.4 6.4-16 6.4-22.4 6.4-19.2 12.8-38.4 12.8-54.4-6.4-83.2-12.8-166.4-19.2-249.6-3.2-44.8-6.4-89.6-9.6-131.2 0-19.2 0-38.4 0-54.4 0-9.6 0-16 0-25.6v-6.4l19.2-3.2 102.4 393.6c38.4-28.8 38.4-32 22.4-73.6-22.4-60.8-41.6-121.6-60.8-179.2-9.6-28.8-19.2-57.6-28.8-86.4-3.2-12.8-6.4-25.6-12.8-38.4v-3.2l16-12.8 3.2 3.2c3.2 3.2 6.4 3.2 9.6 6.4 6.4 6.4 12.8 9.6 19.2 16 9.6 19.2 19.2 38.4 28.8 54.4 6.4 12.8 12.8 22.4 19.2 35.2 22.4 38.4 41.6 76.8 64 115.2l22.4 41.6c12.8-9.6 22.4-22.4 22.4-32s-3.2-22.4-16-35.2c-6.4-6.4-9.6-12.8-12.8-19.2 0-3.2-3.2-3.2-3.2-6.4-25.6-41.6-54.4-80-80-121.6l-28.8-44.8 9.6-12.8 3.2 3.2c3.2 0 6.4 3.2 9.6 3.2 6.4 3.2 16 6.4 22.4 9.6 19.2 16 35.2 32 54.4 44.8 6.4 6.4 16 12.8 22.4 19.2 19.2 16 38.4 32 57.6 48l22.4 19.2c19.2-35.2 16-48-9.6-67.2-19.2-16-41.6-32-64-44.8-9.6-6.4-19.2-12.8-28.8-19.2l-3.2-3.2 3.2-16h144l3.2-3.2c-3.2-3.2-6.4-9.6-12.8-12.8-9.6-9.6-19.2-22.4-32-28.8-41.6-25.6-86.4-38.4-137.6-38.4-28.8 0-57.6 3.2-92.8 9.6-51.2 9.6-112 22.4-172.8 19.2-41.6 0-60.8-22.4-89.6-51.2-6.4-6.4-6.4-12.8-6.4-22.4 0-3.2 0-6.4 0-9.6v-6.4h19.2l28.8-9.6 22.4-6.4 32-19.2c19.2-19.2 38.4-48 51.2-76.8v0c6.4-12.8 12.8-25.6 28.8-25.6 6.4 0 12.8 3.2 19.2 6.4l3.2 3.2-3.2 6.4c-3.2 12.8-6.4 22.4-9.6 32-9.6 28.8-12.8 41.6-60.8 73.6-6.4 6.4-19.2 16-19.2 16s0 0-22.4 9.6l-67.2 19.2c0 0 0 0 0 0 0 3.2 3.2 9.6 3.2 9.6 6.4 3.2 9.6 6.4 16 9.6 25.6 16 44.8 28.8 73.6 28.8 9.6 0 19.2 0 28.8-3.2 28.8-6.4 51.2-12.8 70.4-19.2 48-16 99.2-32 153.6-32 6.4 0 16 0 22.4 0 115.2 9.6 185.6 67.2 204.8 166.4v6.4l-112-9.6z" />
<glyph unicode="&#xe90a;" glyph-name="garden" d="M272 896.457c-12.8 0-19.2-32-19.2-57.6v-118.4c0-118.4 118.4-176 227.2-176v-460.8c-57.6 118.4-227.2 284.8-403.2 227.2 0 0 144-342.4 428.8-342.4s428.8 342.4 428.8 342.4c-176 57.6-342.4-118.4-403.2-227.2v464c115.2-6.4 227.2 57.6 227.2 176v118.4c0 25.6 0 57.6-19.2 57.6-12.8 0-25.6-12.8-38.4-25.6l-83.2-83.2-83.2 96c-6.4 12.8-12.8 19.2-25.6 19.2s-19.2-6.4-25.6-19.2l-83.2-96-83.2 83.2c-25.6 9.6-38.4 22.4-44.8 22.4v0z" />
<glyph unicode="&#xe90b;" glyph-name="generic" d="M953.6 438.857c0-247.424-200.576-448-448-448s-448 200.576-448 448c0 247.424 200.576 448 448 448s448-200.576 448-448z" />
<glyph unicode="&#xe90c;" glyph-name="guidepost" d="M763.36 680.905l-46.56 46.56c-9.312 9.312-18.624 18.624-37.248 18.624h-232.736v65.152c0 27.936-18.624 46.56-46.56 46.56s-46.56-18.624-46.56-46.56v-65.152h-55.84c-27.936 0-46.56-18.624-46.56-46.56v-93.088c0-27.936 18.624-46.56 46.56-46.56h55.84v-493.376c0-27.936 18.624-46.56 46.56-46.56s46.56 18.624 46.56 46.56v493.376h232.736c9.312 0 27.936 9.312 37.248 18.624l46.56 46.56c18.624 9.312 18.624 37.248 0 55.84z" />
<glyph unicode="&#xe90d;" glyph-name="hostel" d="M951.872 503.753h64.896l-331.712 367.776-338.944-367.776h64.896v-418.24h-187.488v129.792l115.392-28.832h57.696l-36.064 14.432-36.064 36.064-57.696 86.528-21.632 43.264-14.432 50.464v21.632l36.064-28.832 28.832-14.432 64.896-21.632-43.264 43.264-36.064 50.464-57.696 100.96-14.432 57.696-14.432 86.528-36.064-144.224-57.696-100.96-36.064-50.464-36.064-43.264 50.464 21.632 36.064 21.632 36.064 28.832-7.2-50.464-14.432-50.464-28.832-43.264-28.832-50.464-72.128-64.896 100.96 14.432 57.696 14.432v-129.792h-158.656v-79.328h1016.8v79.328h-64.896v418.24zM757.184 85.513h-144.224v223.552h144.224v-223.552z" />
<glyph unicode="&#xe90e;" glyph-name="info" d="M720 109.257v-83.2c0-12.8-6.4-19.2-12.8-32s-19.2-12.8-32-12.8h-332.8c-12.8 0-19.2 6.4-32 12.8-6.4 6.4-12.8 19.2-12.8 32v83.2c0 12.8 6.4 19.2 12.8 32s19.2 12.8 32 12.8h38.4v246.4h-38.4c-12.8 0-19.2 6.4-32 12.8s-6.4 12.8-6.4 25.6v86.4c0 12.8 6.4 19.2 12.8 32s19.2 12.8 32 12.8h252.8c12.8 0 19.2-6.4 32-12.8 0-12.8 0-19.2 0-32v-377.6h38.4c12.8 0 19.2-6.4 32-12.8 16-6.4 16-19.2 16-25.6v0zM633.6 861.257v-124.8c0-19.2 0-25.6-12.8-32-6.4-12.8-19.2-12.8-25.6-12.8h-169.6c-12.8 0-19.2 0-32 12.8-6.4 6.4-6.4 12.8-6.4 25.6v131.2c0 12.8 6.4 19.2 12.8 32s12.8 6.4 25.6 6.4h169.6c12.8 0 19.2-6.4 32-12.8 6.4-6.4 6.4-19.2 6.4-25.6v0z" />
<glyph unicode="&#xe90f;" glyph-name="lodging" d="M134.737 708.331c-16.168 0-26.947-10.779-26.947-26.947v-512c0-16.168 10.779-26.947 26.947-26.947s26.947 10.779 26.947 26.947v80.842h700.632v-80.842c0-16.168 10.779-26.947 26.947-26.947s26.947 10.779 26.947 26.947v107.789c0 16.168-10.779 26.947-26.947 26.947h-727.579v377.263c0 16.168-10.779 26.947-26.947 26.947zM296.421 681.383c-43.116 0-80.842-37.726-80.842-80.842v0c0-43.116 37.726-80.842 80.842-80.842v0c43.116 0 80.842 37.726 80.842 80.842v0c0 43.116-37.726 80.842-80.842 80.842v0zM485.053 627.489c-80.842 0-80.842-80.842-80.842-80.842v-80.842h-161.684c-16.168 0-26.947-10.779-26.947-26.947v-53.895c0-16.168 10.779-26.947 26.947-26.947h673.684v134.737c0 134.737-134.737 134.737-134.737 134.737h-296.421z" />
<glyph unicode="&#xe910;" glyph-name="manor" d="M6.4-15.543h73.6v195.2c0 22.4 38.4 44.8 83.2 44.8s83.2-19.2 83.2-44.8v-195.2h128v323.2c0 38.4 60.8 70.4 137.6 70.4s137.6-32 137.6-70.4v-323.2h128v195.2c0 22.4 38.4 44.8 83.2 44.8s83.2-19.2 83.2-44.8v-195.2h73.6v566.4h-1008v-566.4zM777.6 448.457c0 25.6 38.4 44.8 83.2 44.8s83.2-19.2 83.2-44.8v-124.8h-166.4v124.8zM80 448.457c0 25.6 38.4 44.8 83.2 44.8s83.2-19.2 83.2-44.8v-124.8h-166.4v124.8zM736 666.057v195.2h-147.2c-6.4 38.4-38.4 67.2-76.8 67.2s-70.4-28.8-76.8-67.2h-147.2v-195.2h-278.4v-73.6h1008v73.6h-281.6zM592 781.257c0 16 22.4 25.6 51.2 25.6s51.2-12.8 51.2-25.6v-118.4h-102.4v118.4zM332.8 781.257c0 16 22.4 25.6 51.2 25.6s51.2-12.8 51.2-25.6v-118.4h-102.4v118.4z" />
<glyph unicode="&#xe911;" glyph-name="mappalo" d="M512 950.857c-282.752 0-512-229.216-512-512s229.216-512 512-512 512 229.216 512 512-229.216 512-512 512zM96 438.857c0 229.76 186.24 416 416 416 109.568 0 209.216-42.4 283.552-111.648l-411.552-176.352-176.352-411.552c-69.248 74.304-111.648 173.952-111.648 283.552zM585.184 365.673l-256.064-109.76 109.728 256.064 146.336-146.336zM512 22.857c-109.568 0-209.216 42.4-283.552 111.648l411.552 176.352 176.352 411.552c69.248-74.304 111.648-173.952 111.648-283.552 0-229.76-186.24-416-416-416z" />
<glyph unicode="&#xe912;" glyph-name="restaurant" d="M294.4 842.057l-54.4-297.6c-6.4-44.8 96-64 92.8-108.8l-12.8-348.8c-3.2-54.4 54.4-54.4 54.4-54.4s54.4 0 54.4 54.4l-12.8 348.8c-3.2 44.8 92.8 64 92.8 108.8l-54.4 297.6h-25.6l12.8-214.4-41.6-25.6-12.8 243.2h-25.6l-12.8-243.2-41.6 25.6 12.8 214.4h-25.6zM752 842.057c-38.4 0-105.6-35.2-131.2-89.6-22.4-38.4-28.8-128-28.8-182.4v-134.4c0-44.8 57.6-54.4 80-54.4l-25.6-297.6c-6.4-54.4 54.4-54.4 54.4-54.4s54.4 0 54.4 54.4v758.4h-3.2z" />
<glyph unicode="&#xe913;" glyph-name="saddle" d="M930.912 206.121h-837.824c-27.936 0-46.56 18.624-46.56 46.56v372.352c0 18.624 9.312 37.248 27.936 37.248 18.624 9.312 37.248 9.312 46.56 0l195.488-148.96 186.176-37.248h27.936l176.864 27.936 195.488 148.96c18.624 9.312 37.248 9.312 46.56 0s27.936-27.936 27.936-37.248v-372.352c0-18.624-18.624-37.248-46.56-37.248zM139.648 299.209h744.736v232.736l-130.336-93.088c-9.312 0-9.312-9.312-18.624-9.312l-195.488-37.248h-37.248l-204.8 37.248c-9.312 0-9.312 0-18.624 9.312l-130.336 93.088v-232.736z" />
<glyph unicode="&#xe914;" glyph-name="star2" d="M1024 553.801l-353.792 51.424-158.208 320.576-158.208-320.576-353.792-51.424 256-249.536-60.448-352.352 316.448 166.368 316.448-166.368-60.448 352.352 256 249.536z" />
<glyph unicode="&#xe915;" glyph-name="trail" d="M953.6 778.057l-6.4 3.2c-54.4 22.4-118.4 0-144-54.4l-3.2-6.4c-9.6-25.6-12.8-54.4-3.2-80-105.6-204.8-150.4-169.6-153.6-172.8-6.4 0-25.6 19.2-38.4 28.8-41.6 35.2-102.4 86.4-185.6 67.2-99.2-19.2-195.2-76.8-329.6-300.8-28.8-9.6-54.4-28.8-70.4-57.6l-3.2-6.4c-22.4-54.4 0-118.4 54.4-144l6.4-3.2c54.4-22.4 118.4 0 144 54.4l3.2 6.4c9.6 22.4 9.6 51.2 3.2 73.6 140.8 240 204.8 220.8 217.6 224s28.8-12.8 57.6-32c38.4-32 92.8-80 172.8-60.8 86.4 19.2 160 57.6 262.4 249.6 28.8 9.6 54.4 28.8 67.2 57.6l3.2 6.4c22.4 57.6 0 121.6-54.4 147.2z" />
<glyph unicode="&#xe916;" glyph-name="train" d="M713.92 828.265h-403.84c-64.896 0-115.392-50.464-115.392-115.392v-504.8c0-64.896 50.464-115.392 115.392-115.392h50.464l-93.76-158.656h64.896l57.696 86.528h252.384l57.696-86.528h64.896l-93.76 158.656h50.464c64.896 0 115.392 50.464 115.392 115.392v504.8c-14.432 64.896-64.896 115.392-122.592 115.392zM418.24 777.801c0 7.2 7.2 21.632 21.632 21.632h151.424c7.2 0 21.632-7.2 21.632-21.632v-43.264c0-7.2-7.2-21.632-21.632-21.632h-151.424c-14.432 0-21.632 7.2-21.632 21.632v43.264zM274.016 222.505c0 36.064 28.832 64.896 64.896 64.896s64.896-28.832 64.896-64.896c0-36.064-28.832-64.896-64.896-64.896s-64.896 28.832-64.896 64.896zM685.056 157.609c-36.064 0-64.896 28.832-64.896 64.896s28.832 64.896 64.896 64.896c36.064 0 64.896-28.832 64.896-64.896-7.2-36.064-28.832-64.896-64.896-64.896zM764.384 518.185c0-28.832-28.832-57.696-57.696-57.696h-389.408c-28.832 0-57.696 28.832-57.696 57.696v100.96c0 28.832 28.832 57.696 57.696 57.696h389.408c28.832 0 57.696-28.832 57.696-57.696v-100.96zM461.536 914.793c0-23.904-19.36-43.264-43.264-43.264s-43.264 19.36-43.264 43.264c0 23.904 19.36 43.264 43.264 43.264s43.264-19.36 43.264-43.264zM649.024 914.793c0-23.904-19.36-43.264-43.264-43.264s-43.264 19.36-43.264 43.264c0 23.904 19.36 43.264 43.264 43.264s43.264-19.36 43.264-43.264z" />
<glyph unicode="&#xe917;" glyph-name="vc-ospitalita" d="M886.4 771.657c-99.2 73.6-316.8 76.8-377.6 76.8-76.8 0-272-6.4-368-76.8-16-12.8-25.6-28.8-25.6-48v-169.6c0 60.8 99.2 118.4 188.8 118.4 80 0 195.2-67.2 208-112 9.6 41.6 112 115.2 208 112 92.8-6.4 179.2-76.8 192-118.4v169.6c0 19.2-9.6 38.4-25.6 48zM944 451.657c-12.8 9.6-25.6 16-41.6 22.4-124.8 57.6-332.8 60.8-396.8 60.8-80 0-268.8-6.4-387.2-60.8-16-6.4-28.8-12.8-41.6-22.4-16-9.6-25.6-28.8-25.6-48v-313.6c0-32 25.6-60.8 60.8-60.8h92.8c32 0 60.8 25.6 60.8 60.8v60.8h489.6v-60.8c0-32 25.6-60.8 60.8-60.8h92.8c32 0 60.8 25.6 60.8 60.8v313.6c3.2 19.2-6.4 38.4-25.6 48z" />
<glyph unicode="&#xe918;" glyph-name="vc-prodotti" d="M931.2 554.057c-3.2 35.2-22.4 70.4-60.8 102.4 9.6 6.4 16 19.2 16 35.2 0 22.4-16 38.4-38.4 41.6-3.2 38.4-9.6 67.2-35.2 92.8-32 32-73.6 38.4-115.2 44.8-44.8 3.2-102.4 6.4-188.8 6.4s-144 0-188.8-6.4c-38.4-3.2-83.2-12.8-115.2-44.8-25.6-25.6-32-57.6-35.2-96-19.2-3.2-32-19.2-32-41.6 0-12.8 6.4-25.6 16-35.2-38.4-32-57.6-67.2-60.8-102.4-3.2-22.4 6.4-41.6 19.2-57.6 9.6-12.8 28.8-25.6 64-25.6 3.2 0 9.6 0 12.8 0v-416c0-35.2 28.8-64 64-64h518.4c35.2 0 64 28.8 64 64v419.2c3.2 0 9.6 0 12.8 0 32 0 51.2 12.8 64 25.6 12.8 16 19.2 35.2 19.2 57.6zM508.8 819.657c236.8 0 278.4-6.4 284.8-86.4h-569.6c6.4 80 48 86.4 284.8 86.4zM643.2 202.057c-3.2 0-9.6 0-12.8 0 3.2-3.2 6.4-6.4 6.4-9.6 19.2-32 9.6-73.6-22.4-96-32-19.2-73.6-9.6-96 22.4-3.2 3.2-3.2 6.4-6.4 12.8 0-3.2-3.2-9.6-6.4-12.8-19.2-32-60.8-44.8-92.8-25.6s-44.8 60.8-25.6 92.8c3.2 3.2 3.2 6.4 6.4 9.6-3.2 0-9.6 0-12.8 0-38.4 0-70.4 28.8-70.4 67.2s28.8 70.4 67.2 70.4c3.2 0 9.6 0 12.8 0-3.2 3.2-6.4 6.4-6.4 9.6-19.2 32-9.6 73.6 22.4 96 32 19.2 73.6 9.6 96-22.4 3.2-3.2 3.2-6.4 6.4-12.8 0 3.2 3.2 9.6 6.4 12.8 19.2 32 60.8 44.8 92.8 25.6s44.8-60.8 25.6-92.8c-3.2-3.2-3.2-6.4-6.4-9.6 3.2 0 9.6 0 12.8 0 38.4 0 70.4-28.8 70.4-67.2 3.2-38.4-28.8-70.4-67.2-70.4zM860.8 528.457c-38.4-16-131.2 41.6-160 64-3.2 3.2-6.4 3.2-9.6 0s-3.2-6.4-3.2-9.6c0-3.2 9.6-60.8-35.2-73.6-48-12.8-96 28.8-131.2 67.2 0 0-6.4 6.4-12.8 0-28.8-25.6-80-80-131.2-67.2-44.8 12.8-35.2 70.4-35.2 73.6s0 6.4-3.2 9.6c-3.2 3.2-6.4 3.2-9.6 0-32-22.4-124.8-80-163.2-64-9.6 3.2-12.8 9.6-16 22.4 3.2 38.4 44.8 73.6 80 99.2h572.8c35.2-22.4 76.8-57.6 80-99.2-6.4-12.8-12.8-19.2-22.4-22.4zM585.6 269.257c0-40.648-32.952-73.6-73.6-73.6s-73.6 32.952-73.6 73.6c0 40.648 32.952 73.6 73.6 73.6s73.6-32.952 73.6-73.6z" />
<glyph unicode="&#xe919;" glyph-name="vc-servizi" d="M476.8 202.057l-150.4 153.6c-16 16-44.8 16-60.8 0-3.2-3.2-3.2-3.2-6.4-6.4l144-147.2h73.6zM332.8 202.057h60.8l-150.4 153.6c-16 16-44.8 16-60.8 0 0 0 0-3.2-3.2-3.2 3.2-3.2 6.4-3.2 9.6-6.4l144-144zM819.2 195.657c0 0-44.8 80-147.2 92.8l-176 41.6c-22.4 6.4-44.8-9.6-51.2-32s9.6-44.8 32-51.2l169.6-41.6v-12.8l-3.2-9.6h-310.4l-144 144c-19.2 19.2-48 19.2-67.2 0s-19.2-48 0-67.2l160-160c6.4-6.4 19.2-12.8 28.8-12.8v0l326.4-28.8 57.6-83.2h256l-131.2 220.8zM768 822.857c0-40.648-32.952-73.6-73.6-73.6s-73.6 32.952-73.6 73.6c0 40.648 32.952 73.6 73.6 73.6s73.6-32.952 73.6-73.6zM428.8 410.057c-3.2-6.4-16-41.6-32-89.6l6.4-9.6 60.8 57.6c-12.8 12.8-25.6 25.6-35.2 41.6zM342.4 659.657l115.2 64 54.4-22.4c-9.6-32-32-112-60.8-208-3.2-16 0-32 6.4-41.6 9.6-19.2 35.2-35.2 73.6-48 44.8-16 96-28.8 118.4-38.4l-6.4-35.2c44.8-12.8 83.2-22.4 102.4-28.8l22.4 51.2c6.4 41.6-3.2 70.4-32 83.2-16 6.4-112 48-131.2 57.6l57.6 140.8c3.2-3.2 67.2-44.8 70.4-44.8 9.6-6.4 25.6-6.4 35.2 0l112 73.6c12.8 9.6 16 25.6 9.6 38.4s-25.6 19.2-38.4 12.8l-96-51.2-80 64c-12.8 9.6-188.8 67.2-204.8 73.6-9.6 3.2-19.2 3.2-25.6-3.2l-124.8-80c-12.8-9.6-16-25.6-9.6-38.4 0-22.4 19.2-28.8 32-19.2z" />
<glyph unicode="&#xe91a;" glyph-name="vc-tempolibero" d="M608 822.857c0-49.485-40.115-89.6-89.6-89.6s-89.6 40.115-89.6 89.6c0 49.485 40.115 89.6 89.6 89.6s89.6-40.115 89.6-89.6zM960 637.257c-41.6 22.4-217.6 70.4-384 70.4-166.4 3.2-371.2-70.4-441.6-96-19.2-9.6-12.8-28.8-3.2-44.8-9.6-6.4-19.2-16-22.4-25.6-9.6-19.2-9.6-92.8 9.6-118.4 19.2-22.4 307.2-364.8 348.8-406.4 41.6-38.4 105.6-41.6 137.6-41.6 35.2 0 35.2 54.4 19.2 70.4-19.2 16-70.4 60.8-128 115.2 0 0 86.4 57.6 118.4 96s38.4 310.4 35.2 355.2c41.6 12.8 240-19.2 284.8-35.2 41.6-16 67.2 35.2 25.6 60.8zM262.4 419.657c-12.8 12.8-64 89.6-76.8 112 0 0 3.2 16-12.8 32 6.4 3.2 137.6 35.2 294.4 57.6l6.4-112c0 0-48 3.2-96 0-44.8-3.2-70.4-48-115.2-89.6zM515.2 285.257c-19.2-19.2-76.8-51.2-76.8-51.2l-99.2 115.2 57.6 76.8 156.8-25.6c-3.2-38.4-19.2-99.2-38.4-115.2z" />
<glyph unicode="&#xe91b;" glyph-name="vc-terme" d="M179.2 326.857c-9.6 0-19.2 3.2-25.6 12.8-12.8 12.8-9.6 35.2 3.2 48 80 70.4 51.2 137.6 0 240-38.4 73.6-89.6 169.6 3.2 236.8 16 9.6 35.2 6.4 48-6.4 9.6-16 6.4-35.2-6.4-48-41.6-32-28.8-64 16-150.4 48-89.6 108.8-211.2-12.8-320-9.6-9.6-16-12.8-25.6-12.8zM835.2 326.857c-9.6 0-19.2 3.2-25.6 12.8-12.8 12.8-9.6 35.2 3.2 48 80 70.4 51.2 137.6 0 240-38.4 73.6-89.6 169.6 3.2 236.8 16 9.6 35.2 6.4 48-6.4 9.6-16 6.4-35.2-6.4-48-41.6-32-28.8-64 16-150.4 48-89.6 108.8-211.2-12.8-320-9.6-9.6-16-12.8-25.6-12.8zM531.2-2.743c-6.4 0-9.6 0-16 3.2-3.2 0-3.2 3.2-6.4 3.2s-3.2-3.2-6.4-3.2c-6.4-3.2-9.6-3.2-16-3.2-16 0-28.8 9.6-35.2 22.4l-96 217.6c-9.6 19.2 0 41.6 19.2 51.2 6.4 3.2 9.6 3.2 16 3.2 16 0 28.8-9.6 35.2-22.4l80-185.6 80 185.6c6.4 12.8 19.2 22.4 35.2 22.4 6.4 0 9.6 0 16-3.2 19.2-9.6 28.8-32 19.2-51.2l-96-217.6c0-12.8-12.8-22.4-28.8-22.4zM262.4 259.657c-6.4 0-12.8 0-16 6.4-16 9.6-22.4 28.8-12.8 44.8l137.6 227.2c9.6 16 28.8 22.4 44.8 12.8s22.4-28.8 12.8-44.8l-137.6-227.2c-6.4-12.8-19.2-19.2-28.8-19.2zM745.6 259.657c-12.8 0-22.4 6.4-28.8 16l-137.6 227.2c-9.6 16-3.2 35.2 12.8 44.8s35.2 3.2 44.8-12.8l137.6-227.2c9.6-16 3.2-35.2-12.8-44.8-3.2-3.2-9.6-3.2-16-3.2zM595.2 643.657c0-53.019-42.981-96-96-96s-96 42.981-96 96c0 53.019 42.981 96 96 96s96-42.981 96-96zM416 547.657c-16 9.6-35.2 3.2-44.8-12.8l-137.6-227.2c-9.6-16-3.2-35.2 12.8-44.8 6.4-3.2 12.8-6.4 16-6.4 12.8 0 22.4 6.4 28.8 16l137.6 227.2c6.4 19.2 0 38.4-12.8 48zM774.4 310.857l-137.6 227.2c-9.6 16-28.8 22.4-44.8 12.8s-22.4-28.8-12.8-44.8l137.6-227.2c6.4-9.6 16-16 28.8-16 6.4 0 12.8 0 16 6.4 19.2 3.2 22.4 25.6 12.8 41.6zM620.8 643.657c0-12.8-3.2-25.6-6.4-38.4 3.2-3.2 3.2-6.4 6.4-9.6 16-3.2 32-12.8 41.6-25.6l51.2-86.4c6.4 70.4-28.8 137.6-57.6 192-44.8 86.4-57.6 121.6-16 150.4 16 9.6 19.2 32 6.4 48-9.6 16-32 19.2-48 6.4-48-35.2-57.6-80-48-124.8 38.4-22.4 70.4-64 70.4-112zM384 624.457c0 6.4 0 9.6 0 16 0 28.8 9.6 57.6 28.8 76.8-22.4 51.2-25.6 80 6.4 102.4 16 9.6 19.2 32 6.4 48-9.6 16-32 19.2-48 6.4-92.8-67.2-41.6-160-3.2-236.8 3.2 0 6.4-6.4 9.6-12.8zM352 198.857h-243.2v48h224zM668.8 198.857h246.4v48h-227.2zM560 490.057c-6.4 9.6-9.6 19.2-9.6 28.8h-99.2c0-9.6-3.2-19.2-9.6-28.8l-64-108.8 22.4-70.4c19.2-3.2 35.2-16 41.6-32l9.6-22.4h108.8l9.6 22.4c9.6 22.4 28.8 35.2 51.2 35.2 0 0 0 0 0 0l16 44.8-76.8 131.2z" />
<glyph unicode="&#xe91c;" glyph-name="wilderness-hut-cai" d="M269.952 19.945c-9.312 0-27.936 9.312-37.248 9.312s-9.312 18.624-9.312 37.248v372.352h-83.776c-18.624 0-37.248 9.312-46.56 27.936s0 37.248 9.312 55.84l372.352 325.824c18.624 18.624 46.56 18.624 65.152 0l372.352-325.824c18.624-9.312 18.624-37.248 9.312-55.84s-27.936-27.936-46.56-27.936h-83.776v-372.352c0-27.936-18.624-46.56-46.56-46.56h-474.752zM260.64 531.945v0c37.248 0 55.84-18.624 55.84-46.56v-372.352h381.664v372.352c0 27.936 18.624 46.56 46.56 46.56h9.312l-251.36 214.112-242.048-214.112z" />
<glyph unicode="&#xe91d;" glyph-name="wilderness-hut" d="M896-9.143h-768v384l384 288 384-288v-384zM236.8 99.657h550.4v217.6l-275.2 208-275.2-204.8v-220.8zM512 922.057l-512-400v-160l512 396.8 512-396.8v160z" />
<glyph unicode="&#xe91e;" glyph-name="heart-valcamonica" horiz-adv-x="1545" d="M155.751 657.963l12.167 29.344 29.675-25.766c-7.185-0.716-41.842-3.579-41.842-3.579zM263.494 522.362l-18.031 68.158 33.006 0.633 97.943-84.95zM165.551 721.167l-3.854-9.662-10.35 9.084c4.79 0 9.58 0.33 14.204 0.578zM225.947 664.35l-15.14 57.505c36.116-0.303 69.672-2.23 97.888-6.029-13.599-15.966-27.115-31.657-40.713-46.549-14.342-1.899-28.353-3.441-42.035-4.927zM254.465 654.632c-4.019-4.515-8.121-8.781-12.112-13.103l-11.451 10.048c7.653 0.908 15.581 2.092 23.564 3.056zM187.821 735.646l1.954 4.762 1.294-4.762h-3.248zM225.286 605.303l0.468-1.707-2.395-0.138 1.927 1.844zM292.316 672.47c11.892 13.296 23.784 26.647 35.538 40.438 12.442-2.34 23.454-5.065 32.29-8.203 5.203-0.798 19.022-6.139 38.318-14.287-29.289-5.726-58.689-10.928-87.015-15.223-6.552-0.991-12.883-1.899-19.132-2.725zM201.557 756.292l1.597-0.22c7.35-1.954 56.872-10.928 121.066-22.077l-6.139-7.267c-35.731 6.056-73.884 8.451-111.074 8.781zM173.699 701.209l8.258 20.315c4.322 0 8.561 0.138 12.718 0.138l13.186-50.32zM585.925 862.934l0.055 1.597c6.909-5.148 13.874-10.323 20.783-15.746l-0.578-0.908-18.691-32.538-1.349 2.808zM571.969 874.275l0.055-0.798 0.083-27.060-20.37 41.264c6.827-4.404 13.599-8.946 20.233-13.406zM10.075 721.937c8.176 21.774 21.967 44.54 40.713 67.002l65.020-56.432c-50.348-3.441-90.318-8.891-105.734-10.571zM168.524 881.267l0.963 3.606 0.661 1.569c24.087 13.736 50.513 26.316 79.004 36.832l-55.991-135.463zM175.213 778.094c-15.966 15.828-16.764 43.934-13.406 68.874l18.939-72.15-5.533 3.276zM83.271 521.784c-16.159-7.047-32.235-12.442-45.889-16.241-5.726 13.048-10.873 25.876-15.195 38.759l66.342-9.58zM58.661 462.104c0 0-10.901 21.279-15.14 30.088 9.002 2.808 20.068 6.937 32.317 11.892zM93.566 546.779l-76.279 10.956c-3.138 9.635-5.285 19.077-7.598 28.574l100.944 1.789zM459.849 594.402l-38.704-67.057-14.755-25.436-3.992 0.551-102.54 89.052zM108.789 544.549l18.168 43.907 57.615 0.963c-20.591-16.627-41.98-32.923-63.561-46.494zM400.885 461.939l8.781 15.085 3.826-3.056 7.653-6.689zM576.428-11.701l0.055-5.533-3.964 2.395zM292.619 205.161l-3.551 3.083 6.552-1.762-3.001-1.321zM254.383 238.772c-13.626 12.305-26.784 24.445-39.475 36.116 14.782-0.798 34.41-2.092 58.028-3.909zM306.107 193.517c4.267 1.872 9.91 3.854 17.012 5.698 3.056-0.688 6.249-1.349 9.525-1.762l8.836-33.969c-11.754 9.8-23.674 19.765-35.373 30.033zM586.614 733.416l-0.193 49.55 0.688 1.239 22.297-44.925c-7.515-1.927-14.947-3.992-22.793-5.863zM586.696 704.099v13.957c10.405 2.367 20.068 4.817 29.537 7.185l13.489-27.362c-12.057 1.624-26.647 3.771-43.026 6.221zM573.235 622.315c0 0-57.698 27.555-62.46 29.812l27.032 46.769c12.167-1.899 23.894-3.716 35.153-5.285zM572.519 759.017l0.248-29.234c-6.441-1.707-13.213-3.248-19.93-4.955zM572.877 706.026c-7.075 1.101-14.755 2.34-22.297 3.468 7.515 1.707 14.947 3.413 22.16 5.148zM572.409 789.187l-40.080-69.397c-6.304-1.597-12.608-3.083-18.884-4.57l-7.488 1.156 25.766 179.563 40.631-82.032zM665.976 681.774l11.754-0.606c6.799 0 7.928-0.495 14.617 1.101-3.276-3.936-9.414-13.323-15.553-24.032l-2.092-3.909-3.964-7.68-19.517 36.254zM253.419 631.867l25.436 26.014 138.134 24.995 65.213-30.39-3.716-25.876-10.873-18.581-182.894-3.468zM454.233 457.59l-3.441 2.808 3.936 0.991zM472.622 586.171l-13.131-91.86-38.181 5.45zM369.999 439.036l-49.137-84.923c-4.019-0.826-8.121-1.707-12.195-2.422l-17.425 66.121zM488.368 695.703l-4.404-30.969c-7.68 3.524-37.988 17.59-45.2 20.756-0.028 0 41.512 8.451 49.605 10.213zM330.166 339.579l17.865 3.524c0.248 0 68.571 11.837 92.245 15.471l-3.028-22.49-95.934-59.928c-4.432 0.578-8.616 0.963-12.855 1.459l-10.736 40.438zM295.977 280.614l10.13 17.425 4.982-18.884c-5.175 0.551-10.158 1.101-15.113 1.459zM389.268 288.79l45.338 28.876-7.928-51.614c-7.212 0.908-54.45 6.689-61.359 7.625l15.003 9.58zM104.467 532.547l-0.798-0.523 0.138 0.578zM95.521 512.397c5.588 2.477 11.259 5.148 17.342 8.203 3.606 1.817 8.616 4.707 15.030 8.589l122.801-17.865 21.251-83.436-163.129-43.356-3.744 4.872c-13.736 18.333-25.848 37.438-37.080 56.597zM311.42 211.438c-10.323 2.643-20.068 5.643-29.812 8.836l38.484 24.5 7.873-30.060c-6.166-1.074-11.754-2.147-16.544-3.276zM267.018 509.204l126.985-18.278 3.909-3.524-17.783-30.996-92.355-25.188zM266.165 228.367l-0.275 0.138 23.784 41.016c7.818-0.606 16.076-1.542 24.5-2.202l1.899-7.212zM340.764 357.94l50.073 86.547 43.218 12.277 17.7-16.159-9.552-66.92c-0.881-0.165-77.71-11.286-101.439-15.746zM358.602 218.375c-5.23-0.523-9.745-0.963-14.149-1.431l-9.855 37.080 15.278 9.745c8.534-0.908 17.397-1.899 26.482-2.945l48.751-6.084-4.927-34.079c-23.784 0.44-59.074-2.147-61.579-2.285zM362.979 206.042c4.019 0.468 34.107 2.202 55.083 2.918l-0.771-9.58c-18.856 0.165-51.394 1.624-68.709 4.845 4.515 0.578 9.084 1.321 14.397 1.817zM415.529 188.397l-2.615-18.444 1.872 18.636 0.743 0.055zM452.995 347.231l1.817 12.855c7.405 1.019 15.085 1.927 22.655 2.863zM514.381 386.431l-49.632 42.998-7.79-54.092c15.498 1.817 51.779 7.46 51.779 7.46l5.643 3.634zM574.254 493.045l-0.22-15.195-39.832 5.698zM439.891 358.187v-0.523l-0.083 0.523zM661.021 620.085l1.046 12.773 1.899-3.964c-1.019-2.725-1.982-5.698-2.945-8.809zM503.48 698.952c4.597 1.046 9.387 2.065 14.012 3.083l4.074-0.743-23.674-41.236zM499.241 488.531l-25.491 3.689 14.81 102.788 84.868 1.542 0.413-88.722zM492.111 619.672l12.828 22.628c0 0 51.504-24.912 67.112-32.4l-81.509-1.404zM238.031 617.442l5.285 4.57 20.178-17.81-21.609-0.303zM0.578 637.015c26.482-0.413 71.241 0.11 132.188 4.872l-16.682-40.355-109.064-1.982-2.808 13.489c-1.239 8.093-2.945 16.269-3.634 23.977zM350.427 194.095c4.349-0.661 8.258-1.679 12.608-2.312 11.837-1.652 24.059-2.56 36.199-2.918l16.847-0.11-11.479-77.655c0 0-31.354 25.656-41.154 33.804zM336.47 723.176c2.12 2.477 4.267 5.010 6.414 7.598 23.096-3.881 131.059-21.802 138.244-22.931l-50.568-10.928-12.36-2.285-2.477 1.156c-25.848 11.204-45.255 18.911-55.055 21.499-7.845 2.23-16.104 4.019-24.197 5.891zM201.557 768.817l66.259 160.183 0.798 1.679c46.136 20.536 93.181 24.307 139.4 16.296l0.33-0.138 16.049-3.276c16.021-3.716 31.822-8.589 47.485-14.727-12.608-19.104-45.531-64.91-45.531-64.91l-14.892-20.26c-23.839-31.794-50.458-65.543-78.151-98.852-68.351 11.809-122.14 21.279-131.747 24.004zM118.782 372.447l156.825 41.512 17.232-65.708c-22.105-4.735-41.952-9.47-59.35-13.984l-29.565-8.066c-13.323-3.744-24.389-6.937-32.675-9.607-7.185 7.075-20.481 20.646-20.481 20.646l-16.709 17.7c0 0-10.571 11.919-15.278 17.508zM240.041 319.594l29.372 6.937c8.836 2.147 17.92 4.102 27.61 6.166l3.661-14.59-21.334-36.006c-33.556 2.918-60.175 4.542-78.041 5.45-6.139 5.863-12.057 11.451-17.893 17.205 12.69 3.524 56.624 14.837 56.624 14.837zM457.041 477.547l-19.572-4.184-17.783 13.626 38.071-5.093zM624.216 597.485l31.492 0.688-2.918-15.058c-0.055 0-22.242 11.259-28.574 14.369zM586.861 691.464c19.159-2.725 35.566-4.982 49.495-6.634l27.61-55.798-5.753-17.81-60.506-0.771c-3.634 1.679-6.964 3.221-10.516 4.927zM60.010 799.923c4.459 4.79 9.222 9.717 14.039 14.617l13.076 12.36c18.554 16.709 39.75 32.978 63.644 47.926-7.818-33.584-13.681-83.188 17.508-104.825 3.992-3.386 8.616-6.194 14.039-8.423l-10.873-26.234c-12.14-0.303-23.839-0.936-35.29-1.486zM4.047 703.494l0.716 2.147h0.33c36.915 6.552 122.223 13.681 122.223 13.681l4.294 0.303 24.307-22.022-16.764-40.961c-61.359-4.129-110.055-4.9-138.932-4.927-0.716 18.774 0.275 36.447 3.826 51.779zM132.518 601.889l17.040 41.319c5.891 0.495 52.468 5.038 61.965 6.139l2.89-2.45 6.772-25.408-9.497-9.277-11.176-9.057zM199.933 583.115l7.102 6.772 22.27 0.44 17.453-65.296-102.733 14.59c13.901 9.442 32.455 23.426 55.909 43.494zM630.52 728.819c8.781 1.982 74.545 19.324 82.060 21.554l1.184 0.22c6.386-6.744 12.69-13.461 18.774-20.013l-1.239-1.184c-10.956-10.516-21.086-21.857-30.363-33.969-13.489-4.487-52.33 0.028-54.147 0.33zM618.16 838.049l0.578 0.991c14.452-11.727 42.007-36.199 42.007-36.199l24.527-23.288c5.23-5.148 10.268-10.268 15.25-15.333l-1.597-0.495c-4.019-0.963-63.093-17.453-75.426-20.728l-27.803 55.909zM351.748 741.564c21.389 26.206 104.853 137.088 116.277 153.109l19.324 27.418c10.516-4.57 20.976-9.497 31.354-15.14l-26.977-188.261c-7.928 1.349-120.626 19.682-139.978 22.875zM602.057 498.936l-14.92-1.514 0.606-25.023c4.845 5.148 9.525 21.527 14.314 26.537zM623.115 519.417c10.873 11.369 18.361 18.967 26.234 27.225 0.578 6.111 23.866 7.983 25.215 16.351-1.074 0.551-61.084 27.060-75.756 33.969l-11.507-0.193 0.495-85.253 35.318 7.9zM571.391 465.958l-63.506 9.029-35.593-9.414-2.753-19.269 49.77-44.375c12.663 15.553 30.611 40.796 52.082 64.029zM470.722 79.8l-38.236 8.616c14.562-11.424 62.102-48.173 62.102-48.173l5.23-3.881c-11.644 15.113-21.224 29.895-29.097 43.439zM479.449 346.048l-29.234-18.444-7.212-75.536c7.377 17.673 25.821 75.866 36.447 93.979zM448.7 120.762c-8.534 16.324-13.489 41.539-15.828 67.635-1.019-0.11-2.147-0.248-3.138-0.33 0 0-11.837-78.233-11.479-82.693 13.489-4.019 34.988-9.167 44.485-11.424-5.863 10.818-10.46 20.068-14.039 26.812zM670.132 562.965c-0.44 0.138-7.46 3.028-7.708 3.248-0.083-0.661-0.413-7.653-0.468-8.368 0.468 0.468 7.68 4.652 8.176 5.12zM723.233 554.79l-44.154 43.714-10.543-0.22c-1.707-6.634-2.918-13.489-4.047-20.591 1.514-0.743 5.836-3.661 9.057-5.203 4.047 4.019 44.732-22.545 49.687-17.7zM711.561 612.267c21.086 20.040 45.31 42.64 68.406 63.396-10.46 12.498-25.601 30.473-36.089 42.2l-0.358-1.156c-7.24-16.847-15.553-28.546-33.639-33.143-15.25-17.92-30.473-49.742-30.473-49.742 3.909-9.497 4.68-12.195 8.836-21.967l23.316 0.413zM1388.135 564.204l-7.873 30.776-33.006-21.334c6.992-1.569 40.879-9.442 40.879-9.442zM1262.224 445.34l27.555 64.828-32.675 5.368-108.872-70.195zM1387.365 628.068l2.533-10.048 11.451 7.488c-4.625 0.881-9.359 1.789-13.984 2.56zM1319.619 580.528l23.123 54.642c-35.758 4.927-69.342 7.708-97.806 8.038 11.204-17.673 22.38-35.153 33.776-51.945 13.929-3.771 27.583-7.432 40.906-10.736zM1289.944 574.967c3.386-4.955 6.717-9.91 10.158-14.755l12.8 8.286c-7.46 2.092-15.195 4.267-22.958 6.469zM1367.49 645.658l-1.404 5.065-1.817-4.68 3.221-0.385zM1311.884 522.059l-0.688-1.707 2.257-0.44-1.569 2.147zM701.514 180.662l-6.414-1.404 5.23-5.616 20.949 11.396zM796.759 203.62c-6.139 1.129-12.25 2.202-18.444 3.221l-9.414-6.111c9.277 1.074 18.499 2.037 27.858 2.89zM662.287 445.34c-7.157 9.084-14.452 17.37-21.609 24.224-28.271-9.387-52.881-17.48-73.279-24.224zM713.736 193.572c6.441 0.853 20.783 3.056 28.216 4.074-0.633 5.973-1.101 11.451-2.092 17.012l-91.309 14.617 39.75-40.906c1.376 0.358 19.049 4.102 25.436 5.203zM1255.067 597.898c-9.91 14.92-19.682 29.895-29.427 45.145-12.635-0.495-23.866-1.652-33.226-3.661-5.203 0-19.517-3.303-39.888-8.671 28.161-9.8 56.569-19.077 84.042-27.362 6.221-1.817 12.36-3.689 18.499-5.45zM1356.726 668.038h-1.459c-7.625-0.936-57.946-2.753-123.076-4.625l5.010-8.066c36.144 0.908 74.352-2.092 111.129-7.047zM1376.519 609.514l-5.285 21.416c-4.129 0.578-8.479 1.266-12.58 1.899l-20.15-48.008zM984.828 783.929l-15.691 32.207-0.385 1.046c7.625 4.322 15.168 8.506 22.903 12.58l-0.22-1.597-6.607-44.237zM1006.878 837.498l-0.165-0.853-3.936-26.784 25.931 37.85c-7.267-3.248-14.562-6.772-21.829-10.213zM582.127 79.911l-63.341-41.071c15.663-18.058 32.207-33.969 48.641-47.513 5.478 19.82 15.333 53.596 26.894 85.308-4.267 1.156-8.203 2.202-12.195 3.276zM468.327 113.825c7.488-15.085 16.296-29.537 25.821-43.081l19.737 28.711c-17.976 5.506-33.446 10.405-45.558 14.369zM502.902 58.494l6.469-8.093 53.789 34.657c-12.222 3.496-24.004 6.717-34.85 9.993zM1541.464 606.844c-5.065 22.655-15.443 47.155-30.803 72.095l-72.37-46.549c49.357-10.653 88.116-21.857 103.174-25.546zM1407.212 786.985l-0.385 3.744-0.33 1.624c-22.022 17.095-46.467 33.308-73.168 47.788l36.199-142.070zM1385.988 685.849c18.031 13.406 22.848 41.126 23.068 66.342l-29.179-68.847 6.111 2.505zM1440.548 419.189c15.003-9.442 30.17-16.874 43.108-22.683 7.598 12.057 14.342 24.142 20.591 36.199h-67.112zM1456.404 356.536c0 0 13.764 19.352 19.187 27.528-8.423 4.129-18.801 9.772-30.308 16.462zM1433.886 445.34h77.077c4.487 9.084 7.928 18.141 11.507 27.087l-99.512 16.159zM1078.119 544.549l28.711-71.902 11.066-27.307h3.936l114.295 73.554zM1418.553 445.34l-11.727 45.889-56.927 9.249c17.948-19.435 36.942-38.649 56.294-55.138zM1117.732 404.874l-6.662 16.296-4.239-2.505-8.506-5.506zM876.562-38.871l-0.853-5.395 4.349 1.817zM1188.34 135.434l3.826 2.56-6.579-0.881 2.753-1.679zM1230.98 163.429c15.25 10.075 29.978 20.123 44.182 30.005-14.727 1.239-34.354 2.753-57.946 4.404zM1173.282 125.661c-3.826 2.643-9.249 5.285-16.021 8.368-2.973-0.358-6.304-0.468-9.58-0.578l-13.599-32.455c13.021 8.231 26.124 16.406 39.199 24.665zM693.228 585.318l-3.661 3.138-0.798 0.606-1.266-1.294 2.23-0.991zM972.303 700.025l7.322 49.027-0.495 1.376-28.436-41.374c7.102-2.945 14.259-6.001 21.609-9.029zM968.119 671.039l1.982 13.819c-9.937 3.881-19.187 7.708-28.161 11.341l-17.315-25.188c12.305-0.028 26.977-0.028 43.494 0.028zM969.826 588.153c0 0 60.974 19.132 66.039 20.673l-20.068 50.155c-12.305-0.138-24.252-0.303-35.483-0.303zM990.003 723.479l-4.377-28.876c6.249-2.67 12.745-5.148 18.994-7.763zM982.158 671.039c7.102 0.028 14.81 0.11 22.435 0.33-7.157 2.725-14.342 5.478-21.196 8.148zM994.353 753.291l29.84-74.435c6.029-2.395 12.030-4.79 18.003-7.102l7.543 0.055v181.324l-51.835-75.371zM787.373 362.069c-23.096 2.037-46.219 3.441-69.177 3.992 6.909-20.095 10.956-34.96 17.37-56.294 7.185 3.771 14.892 9.057 21.967 13.654 7.543 5.12 39.585 28.161 46.742 36.997-8.203 0.688-9.552 0.881-16.902 1.652zM886.444 660.22l-11.727 1.101c-6.717 1.019-7.955 0.661-14.287 3.138 2.725-4.404 7.405-14.48 11.975-25.986l1.514-4.047 2.863-8.258 24.472 33.143zM1287.797 552.202l-21.444 29.372-133.234 44.485-68.929-20.866v-26.206l8.176-19.93 180.554-29.317zM1064.19 408.205l3.771 2.34-3.771 1.597zM1064.19 538.135v-92.796h38.621zM1144.901 377.787l36.557-90.979c3.909-1.266 7.9-2.753 11.754-4.019l26.729 63.011zM1064.19 648.796v-31.326c8.176 2.45 40.218 12.030 47.733 14.204 0.028 0-39.777 14.204-47.733 17.122zM1170.282 273.925l-17.205 5.946c-0.248 0-66.231 21.472-89.134 28.436l-0.11-22.738 86.464-72.893c4.404-0.11 8.644-0.275 12.91-0.495l16.379 38.484zM1195.662 210.722l-7.46 18.554-7.543-17.948c5.148-0.22 9.993-0.385 15.003-0.606zM1104.573 232.001l-40.713 35.043 0.385-52.302c7.322-0.138 54.945-1.101 61.992-1.156l-13.654 11.617zM579.429 281.248l-65.406 70.553c-13.681-2.010-25.243-3.881-33.694-5.395l-0.908-0.055c-5.643-9.662-11.892-21.802-16.214-31.216l3.358-1.514c32.262-15.471 71.737-25.903 112.863-32.372zM597.817 90.123l1.376-0.193 0.716 1.542zM1421.141 432.705l0.743-0.578-0.165 0.578zM504.141 362.454l-8.121 8.754-0.578 0.578c-2.863-4.184-5.671-8.506-8.396-12.8l4.432 1.074c3.661 0.633 8.011 1.569 12.663 2.395zM1427.059 411.536c-5.175 3.276-10.433 6.717-15.938 10.543-3.221 2.367-7.955 5.863-13.709 10.653l-124.012-0.193-32.868-79.665 155.228-66.039 4.515 4.212c16.131 16.214 30.803 33.391 44.622 50.733zM1170.585 144.27c10.543 1.184 20.701 2.78 30.693 4.57l-34.547 29.675-12.057-28.656c5.973-1.954 11.396-3.689 15.911-5.588zM1256.884 432.705h-128.279l-4.404-2.918 13.268-33.308 87.813-38.043zM1217.739 154.648l0.33 0.138-17.645 44.017c-7.9 0.44-16.186 0.743-24.665 1.239l-2.863-6.772zM772.122 54.448l8.176-1.239c4.019-0.578 8.121-0.963 12.167-1.376l-22.27 23.922c0.551-6.221 1.156-12.332 1.707-18.939l0.22-2.367zM578.906 95.216l31.602 20.425c3.881 8.121 7.735 15.498 11.617 21.224 13.103 19.627 25.133 31.354 38.649 39.034 3.441 2.367 7.185 4.404 10.901 6.194l-48.008 53.486-87.208-128.389c13.076-3.854 27.362-7.818 42.448-11.975zM522.144 365.62c35.318 5.588 91.86 11.809 177.003 12.828-7.35 21.004-16.874 38.979-27.362 54.284h-130.371c-13.076-15.856-25.711-31.932-37.080-48.008l2.092-2.257zM818.176 234.093l-27.775-17.26c11.121-2.092 42.31-6.909 53.541-8.974 4.955 0.468 13.984 0.743 18.911 1.129l-3.964 1.927c-3.276 1.789-6.607 3.551-9.937 5.175zM1162.381 293.525l-37.245 92.796-41.071 18.333-19.902-13.571v-67.498c0.881-0.33 75.398-22.27 98.219-30.060zM1124.779 157.814c5.12-1.184 9.635-2.312 13.874-3.386l15.003 35.263-13.654 11.947c-8.589 0.165-17.59 0.551-26.784 0.743l-49.027 0.853v-34.437c23.729-2.863 58.221-10.405 60.588-10.984zM1118.778 146.307c-3.909 1.019-33.529 6.937-54.037 10.708l-0.578-9.58c18.609-2.422 51.119-5.698 68.709-4.845-4.377 1.074-8.836 2.505-14.094 3.716zM631.979 477.327c-11.864 10.268-22.463 17.48-29.95 21.884l-0.853 0.468c-14.452-15.278-28.959-31.134-42.916-47.072l4.79 1.486c20.233 6.827 43.686 14.755 68.929 23.233zM634.291 244.663c30.969-5.368 66.231-11.534 103.256-18.003-3.276 19.93-6.827 38.814-10.956 56.734l-9.772 5.423c-13.571-5.203-39.667-14.865-68.792-19.627l-15.498-22.6zM678.914 174.165c-3.936-1.624-7.735-3.496-11.589-5.698-11.341-7.46-22.050-17.26-31.932-30.914-1.817-2.422-3.826-5.918-5.863-9.58l57.78 37.162zM532.412 354.416l71.765-75.123c6.854-0.413 13.736-0.578 20.425-0.468 3.771 0 7.763 0.468 11.644 0.661l61.717 87.29c-55.358 0.991-118.617-5.726-165.551-12.36zM614.059 266.438l8.534-9.029 6.441 9.414c-4.982-0.413-10.075-0.523-14.975-0.385zM722.050 303.71c-5.45 18.471-9.359 32.675-15.14 50.981l-49.302-72.59c22.050 3.276 42.090 11.562 64.442 21.609zM710.24 162.879l41.181-44.457c-1.321 13.599-5.285 53.734-7.763 66.094 0 0-25.325-16.324-33.419-21.637zM756.899 210.722l-2.010-0.303 0.138-1.542 2.56 1.597-0.688 0.248zM1064.19 136.37v-18.774l0.853 18.774-0.688 0.138zM911.825 292.947l-80.931-52.165 42.64-23.398c4.459-2.312 8.726-4.515 13.241-6.579 4.294 0.22 8.644 0.44 12.993 0.661zM743.494 274.201c2.422-11.507 7.68-39.86 8.836-49.467l19.765-4.735 32.18 20.618zM688.769 432.705c8.286-13.516 15.911-28.821 22.435-46.412l31.96 46.412zM803.641 522.802c-3.551-1.046-7.102-2.23-10.488-3.441l6.029-5.258 5.643 8.148zM873.479 545.293c-8.176-2.698-45.586-14.727-45.586-14.727l-1.349-1.872 44.402-18.967c1.349 11.451 2.533 23.178 2.533 35.566zM788.391 529.327l-13.489 5.671 8.616-7.295 4.872 1.624zM846.997 582.345l-142.318 22.793-5.285-5.313 1.762-1.514 37.768-32.51 70.058-29.565 6.937 2.23 31.079 43.879zM818.341 516.581l-8.121-11.782 49.577-42.475c0 0 7.845 28.794 8.589 33.116zM1049.793 298.893v12.91c-7.185 2.202-14.562 4.019-22.022 6.111zM1003.217 338.945c16.076-3.964 31.464-7.68 46.522-11.672v54.587l-55.22-35.511zM1049.793 418.253l-33.887 14.452h-69.232l-5.918-40.218 42.585-36.639 66.452 42.998zM950.474 460.507l-1.872-15.168h40.218zM1064.19 307.894v-0.633l0.22 0.633zM911.825 198.445c2.945-1.376 5.863-2.835 8.809-4.019 45.063-8.011 94.53-16.406 128.499-22.352l0.606 31.354c-41.87 0.22-90.648-0.633-137.638-2.863zM882.618 598.531l0.771 12.663-2.422-3.468c0.578-2.973 1.129-6.084 1.652-9.194zM1049.133 159.383c-18.939 3.276-50.431 8.974-73.389 13.131 21.719-7.79 53.982-17.315 73.389-21.719zM938.169 374.924l-3.331-21.582c11.507-2.23 22.848-4.322 33.914-6.634l1.239 0.798zM933.021 340.239l-2.835-18.444 22.242 14.314c-6.469 1.349-12.855 2.753-19.407 4.129zM1049.793 654.164c-4.404 1.679-8.974 3.386-13.378 5.038l-4.184-0.083 17.618-44.209zM1023.972 445.34h25.821v103.834l-83.877 13.544-12.966-87.758zM913.917 212.181c0 0 63.974 4.459 135.904 2.945v63.892l-55.055 47.348c-7.57 1.817-15.195 3.661-22.793 5.34l-44.677-28.821zM932.636 432.705h-38.566l34.217-29.537zM1049.793 574.141l-9.497 24.114c0 0-54.477-17.315-71.076-22.407l80.573-13.103zM758.441 42.528c-21.031 3.028-84.014 15.195-84.014 15.195-23.481 4.955-46.081 10.323-67.801 15.883-11.589-32.345-22.573-67.167-27.968-85.721l-1.349-4.404c9.167-6.992 17.976-13.378 26.399-18.801 3.689-2.010 23.839-12.69 23.839-12.69 43.494-21.995 84.014-28.464 130.288-23.564 1.486 28.436 3.441 77.738 0.606 114.102zM1300.928 535.823l-4.57 5.258-22.49-14.672 21.361-3.579zM1538.684 521.426c-26.124 3.386-70.416 10.323-130.096 23.564l10.736-42.337 107.743-17.397 4.735 12.966c2.34 7.708 5.093 15.691 6.882 23.206zM1129.513 132.598c-4.349 0-8.396-0.413-12.855-0.413-11.919 0-24.087 0.908-36.281 2.312l-16.572 2.175 0.33-78.564c0 0 34.575 20.976 45.421 27.748zM1218.565 654.329c-1.707 2.863-3.606 5.643-5.313 8.589-23.398-0.716-132.848-3.001-140.116-3.028l48.614-18.168 11.864-3.936 2.643 0.826c27.252 7.432 47.485 12.277 57.643 13.406 7.873 1.184 16.324 1.652 24.665 2.312zM1358.571 680.453l-42.805 168.001-0.578 1.707c-42.805 26.95-88.859 37.272-135.766 35.924l-0.358-0.083-16.351-1.019c-16.296-1.376-32.703-3.881-49.082-7.845 9.745-20.618 35.951-70.636 35.951-70.636l11.837-22.242c19.187-34.85 40.713-71.985 63.396-108.844 69.397 1.899 123.902 3.689 133.757 5.038zM1384.254 276.21l-149.42 63.534-26.454-62.515c21.251-7.928 40.163-15.443 56.789-22.38l28.051-12.167c12.69-5.588 23.288-10.378 31.134-14.149 8.066 6.084 23.123 17.59 23.123 17.59l19.077 15.14c0.028-0.055 12.167 10.268 17.7 14.947zM1256.608 241.333l-28.051 11.011c-8.506 3.248-17.26 6.497-26.509 9.827l-5.698-13.819 16.021-38.566c33.584-1.982 60.203-4.102 78.068-5.808 6.827 5.010 13.489 9.69 20.068 14.48-11.947 5.258-53.899 22.875-53.899 22.875zM608.14 236.13l-27.5 4.762c-37.548 6.497-62.46 10.763-65.488 11.176-30.39 4.019-55.303-4.239-73.306-13.764l-0.055-0.11c-0.881-11.121 0-33.446 0-33.446 0.743-8.589 1.679-15.113 1.679-15.113h0.11c3.083-20.123 8.919-39.695 16.737-58.441 1.927-0.551 38.346-12.635 61.827-19.792zM766.727 522.224l-37.713 32.235-52.468 22.352c-13.901-14.094-57.313-58.221-57.313-58.221l-7.075-7.405 2.037-1.129c9.084-5.588 21.361-14.177 34.85-27.087 17.81 6.001 105.596 35.208 117.681 39.254zM776.362 513.911c-7.405-2.45-98.136-32.015-119.387-38.979 7.928-8.479 16.049-18.223 23.784-29.592h71.104l38.786 56.266zM1064.19 428.383l18.884-6.854 19.627 10.901-38.511 0.275zM860.899-49.717l3.551 23.866-58.111 62.598c-10.984 1.074-22.242 2.202-33.419 3.689 2.285-42.668 0.578-83.849-1.129-109.23l-0.165-1.129c21.747 3.221 44.98 8.286 70.416 15.030l18.856 5.175zM873.176 33.086c-3.331 0.055-25.16 0.963-25.16 0.963-6.331 0.22-12.938 0.578-19.352 1.129l38.676-41.622zM921.184 355.847l4.349 29.812-54.642 47.045h-8.479c-10.268-24.968-22.793-45.503-36.392-62.763 33.639-3.799 82.693-11.754 95.163-14.094zM938.279 466.646l-58.716 24.004c0 0-4.735-22.765-9.69-37.272l10.763-8.313 53.816 0.275zM952.208 564.892l-11.314 1.844c-15.471-4.79-54.119-17.508-55.248-17.838 0.413-28.574-2.753-44.292-2.753-44.292l56.762-23.949zM915.871 570.838l-31.024 5.34 0.771-15.498c0.028 0 23.454 8.011 30.253 10.158zM966.192 658.569c-19.407 0-35.951 0.083-49.99 0.385l-35.153-51.229 3.111-18.444 59.79-9.359c3.854 1.184 7.405 2.23 11.121 3.524zM1503.118 691.051c-3.854 5.423-7.735 11.039-11.864 16.599l-11.259 14.039c-15.911 19.132-34.602 38.318-56.074 56.404 2.918-34.299 1.679-84.262-32.207-101.109-4.404-2.863-9.497-5.038-15.25-6.386l7.047-27.528c12.030-2.12 23.509-4.404 34.877-6.524zM1544.795 587.713l-0.385 2.34-0.358 0.028c-35.648 11.644-118.947 30.831-118.947 30.831l-4.294 0.826-27.142-18.278 10.846-42.916c60.065-12.828 108.184-20.536 136.73-24.72 3.331 18.526 4.9 36.254 3.551 51.89zM1403.138 505.35l-10.956 43.301c-5.753 1.376-51.174 12.525-60.478 15.003l-3.138-2.12-10.323-24.142 8.066-10.571 9.745-10.433zM1333.713 496.376l-5.973 7.735-22.050 3.634-26.454-62.24 103.779-0.165c-12.47 11.396-28.766 27.941-49.302 51.036zM1033.167 39.748l-42.475-3.386-19.958-1.404c-25.27-1.597-53.431-2.422-83.491-2.147l-7.845-52.413 15.223-16.159c10.901 5.12 38.484 19.572 38.484 19.572l31.822 17.122c0.028 0 52.33 29.62 68.241 38.814zM1050.206 138.104c-37.685 8.286-88.722 23.729-135.051 45.118l-5.533 0.853-20.425-138.491c28.216-0.44 78.701 1.569 78.701 1.569l31.409 2.010c0 0 32.4 2.725 50.513 5.285 0.936 4.459 0.385 83.656 0.385 83.656zM896.079 186.47c-7.598 1.184-50.183 8.671-55.991 9.635-27.087-1.982-54.587-4.735-82.005-8.011 0.798-6.552 8.093-70.581 9.772-87.235l47.678-51.532c10.736-1.019 55.633-3.303 59.625-3.551zM592.339 251.903c5.45-1.074 11.396-1.982 17.232-2.945l-17.92 19.352c-16.544 1.459-31.602 4.019-46.136 7.020-3.661 0.881-61.937 14.92-87.896 26.95-7.322-17.040-12.057-33.859-14.424-50.651l4.9 2.422c18.196 7.543 42.337 12.745 73.196 9.47 3.001-0.33 9.745-1.404 18.801-2.89zM757.175 56.842c-1.074 12.58-2.12 24.747-3.221 36.502l-56.762 61.194-79.087-51.311c-2.23-5.285-4.432-10.681-6.662-16.544 22.352-5.698 70.526-16.351 70.526-16.351l13.681-2.863c-0.028 0.028 40.879-7.57 61.524-10.626zM760.478 432.705l-37.080-54.009 1.101 0.083c22.105-1.129 43.852-2.753 65.296-4.79 0 0 18.278-1.899 21.444-2.202 14.535 17.865 27.858 37.74 37.658 60.919zM830.866 466.976l-28.821 26.399-6.937-10.295-25.876-37.74h85.336zM873.286 556.964c-0.248 7.24-0.523 14.259-1.184 20.976l-10.46 1.817-27.693-35.29c0.028 0 32.125 10.295 39.337 12.498zM928.397 701.732c-8.534 3.386-71.186 29.923-78.316 33.061l-1.184 0.413c-7.267-5.808-14.424-11.534-21.361-17.15l1.129-1.349c9.304-11.975 17.755-24.61 25.215-37.906 12.69-6.304 51.835-7.405 53.514-7.405zM955.979 808.209l-0.468 0.991c-15.911-9.552-46.687-29.812-46.687-29.812l-27.528-19.655c-6.001-4.212-11.644-8.589-17.315-12.91l1.624-0.798c3.716-1.459 59.955-26.261 71.682-31.354l35.483 51.532zM843.281 668.176c-17.26 7.24-23.894 19.985-28.656 37.713l-0.165 1.101c-19.958-16.654-55.248-48.862-55.248-48.862l-14.039-13.186c-10.901-10.488-20.508-19.93-28.876-28.188l2.78-0.44 135.353-22.105c5.588 9.112 6.717 11.727 11.975 20.563-0.055-0.028-10.708 33.584-23.123 53.404zM1206.040 674.838c-17.508 28.876-84.29 150.576-93.484 168.056l-15.030 29.95c-11.121-3.028-22.215-6.469-33.336-10.516v-190.326c8.066 0.303 122.223 2.367 141.85 2.835zM919.312 342.882c-12.14 2.477-36.722 6.717-36.722 6.717l-15.471 2.477c0 0-33.776 4.955-50.596 6.937-7.322-8.148-14.617-15.443-21.94-21.995l-19.627-15.471c-7.46-5.643-14.672-10.543-21.499-15.003-5.478-3.634-10.295-6.497-15.085-9.607l1.486-6.166 76.719-42.31 97.998 63.203z" />
<glyph unicode="&#xe91f;" glyph-name="siti-interesse" horiz-adv-x="1138" d="M196.538 584.13h92.492l13.88-425.464h-117.923zM117.926 135.539h901.798v-48.55h69.365v-69.373h48.55v-48.561h-1137.639v48.561h48.553v69.373h69.373zM1065.956 708.993l-497.144 208.105-497.135-208.105v-30.065h994.279zM166.476 655.807h804.667v-46.229h-804.667v46.229zM846.291 584.13h92.478l13.88-425.464h-117.926zM628.939 584.13h94.799l13.88-425.464h-120.241zM413.887 584.13h92.495l13.872-425.464h-120.238z" />
<glyph unicode="&#xe920;" glyph-name="gps-fixed-indicator" d="M512 625.039c-102.4 0-186.182-83.782-186.182-186.182s83.782-186.182 186.182-186.182c102.4 0 186.182 83.782 186.182 186.182s-83.782 186.182-186.182 186.182zM926.255 485.402c-23.273 195.491-176.873 349.091-367.709 367.709v97.745h-93.091v-97.745c-195.491-18.618-349.091-172.218-367.709-367.709h-97.745v-93.091h97.745c23.273-195.491 176.873-349.091 367.709-367.709v-97.745h93.091v97.745c195.491 23.273 349.091 176.873 367.709 367.709h97.745v93.091h-97.745zM512 113.039c-181.527 0-325.818 144.291-325.818 325.818s144.291 325.818 325.818 325.818 325.818-144.291 325.818-325.818-144.291-325.818-325.818-325.818z" />
<glyph unicode="&#xe921;" glyph-name="gps-location-symbol" d="M926.255 485.402c-23.273 195.491-176.873 349.091-367.709 367.709v97.745h-93.091v-97.745c-195.491-18.618-349.091-172.218-367.709-367.709h-97.745v-93.091h97.745c23.273-195.491 176.873-349.091 367.709-367.709v-97.745h93.091v97.745c195.491 23.273 349.091 176.873 367.709 367.709h97.745v93.091h-97.745zM512 113.039c-181.527 0-325.818 144.291-325.818 325.818s144.291 325.818 325.818 325.818 325.818-144.291 325.818-325.818-144.291-325.818-325.818-325.818z" />
<glyph unicode="&#xe922;" glyph-name="ion-android-checkmark-circle" d="M341.436 517.893l-58.236-58.236 187.2-187.2 416 416-58.236 58.236-357.764-355.672-128.964 126.872zM844.8 438.857c0-183.036-149.766-332.8-332.8-332.8s-332.8 149.764-332.8 332.8 149.764 332.8 332.8 332.8c31.2 0 62.4-4.164 91.528-12.482l64.472 64.482c-47.836 20.8-99.836 31.2-156 31.2-228.8 0-416-187.2-416-416s187.2-416 416-416 416 187.2 416 416h-83.2z" />
<glyph unicode="&#xe923;" glyph-name="ion-android-checkmark-circle-empty" d="M844.8 438.857c0-183-149.8-332.8-332.8-332.8s-332.8 149.8-332.8 332.8 149.8 332.8 332.8 332.8c31.2 0 62.4-4.2 91.5-12.5l64.5 64.5c-47.8 20.8-99.8 31.2-156 31.2-228.8 0-416-187.2-416-416s187.2-416 416-416 416 187.2 416 416h-83.2zM179.2 438.857c0 183 149.8 332.8 332.8 332.8s332.8-149.8 332.8-332.8-149.8-332.8-332.8-332.8c-31.2 0-62.4 4.2-91.5 12.5l-64.5-64.5c47.8-20.8 99.8-31.2 156-31.2 228.8 0 416 187.2 416 416s-187.2 416-416 416-416-187.2-416-416h83.2z" />
<glyph unicode="&#xe924;" glyph-name="layers" horiz-adv-x="1150" d="M575 800l-395.225-179.739 395.225-179.485 395.225 179.485zM575 364.727l-289.256 131.319-105.97-48.166 395.225-179.485 395.225 179.485-105.97 48.166zM575 192.336l-289.256 131.319-105.97-48.166 395.225-179.485 395.225 179.485-105.97 48.166z" />
<glyph unicode="&#xe925;" glyph-name="aerialway-15" d="M887.467 609.524h-341.333v163.84c12.657 7.148 22.699 18.152 28.672 31.403l346.795 43.691c18.848 0 34.133 15.285 34.133 34.133s-15.285 34.133-34.133 34.133l-356.352-44.373c-12.602 16.814-32.242 26.883-53.248 27.307-27.559-0.137-52.333-16.835-62.805-42.325l-346.795-43.008c-18.848 0-34.133-15.285-34.133-34.133s15.285-34.133 34.133-34.133l356.352 44.373c5.236-6.847 11.721-12.636 19.115-17.067v-163.84h-341.333c-37.704 0-68.267-30.563-68.267-68.267v-477.867c0-37.704 30.563-68.267 68.267-68.267h750.933c37.704 0 68.267 30.563 68.267 68.267v477.867c0 37.704-30.563 68.267-68.267 68.267zM477.867 199.924h-273.067v273.067h273.067v-273.067zM819.2 199.924h-273.067v273.067h273.067v-273.067z" />
<glyph unicode="&#xe926;" glyph-name="airfield-15" d="M465.456 904.313h-139.639c-46.544 0-46.544 46.544 0 46.544h372.361c46.544 0 46.544-46.544 0-46.544h-139.633c0 0 55.856-40.339 55.856-133.427v-93.095h409.6v-136.533l-409.6-136.533-34.133-341.333 170.667-89.989v-46.544h-477.867v46.544l170.667 89.989-34.133 341.333-409.6 136.533v136.533h409.6v93.088c0 93.095 55.856 133.434 55.856 133.434z" />
<glyph unicode="&#xe927;" glyph-name="airport-15" d="M1024 485.401v-114.811l-443.733 68.267-21.722-325.816 192.389-117.917v-68.267l-238.933 46.544-238.933-46.544v68.267l192.389 117.917-21.722 325.816-443.733-68.267v114.811l443.733 158.256v204.8c0 0 0 102.4 68.267 102.4s68.267-102.4 68.267-102.4v-192.389l443.733-170.667z" />
<glyph unicode="&#xe928;" glyph-name="alcohol-shop-15" d="M955.733 677.79h-273.067v-234.837c0 0 0 0 0-4.096 0.205-62.095 42.278-116.231 102.4-131.755v-243.712h-34.133c-18.848 0-34.133-15.285-34.133-34.133s15.285-34.133 34.133-34.133h136.533c18.848 0 34.133 15.285 34.133 34.133s-15.285 34.133-34.133 34.133h-34.133v243.712c60.122 15.524 102.195 69.659 102.4 131.755 0 0 0 0 0 4.096v0 234.837zM887.467 438.857c0-37.704-30.563-68.267-68.267-68.267s-68.267 30.563-68.267 68.267v170.667h136.533v-170.667zM375.467 780.19v34.133c18.848 0 34.133 15.285 34.133 34.133s-15.285 34.133-34.133 34.133v34.133c0 18.848-15.285 34.133-34.133 34.133h-68.267c-18.848 0-34.133-15.285-34.133-34.133v-34.133c-18.848 0-34.133-15.285-34.133-34.133s15.285-34.133 34.133-34.133v-34.133c0-97.621-170.667-209.579-170.667-307.2v-409.6c0-37.704 30.563-68.267 68.267-68.267h341.333c36.304 3.174 65.092 31.962 68.267 68.267v409.6c0 92.16-170.667 215.040-170.667 307.2zM307.2 131.657c-94.256 0-170.667 76.411-170.667 170.667s76.411 170.667 170.667 170.667 170.667-76.411 170.667-170.667-76.411-170.667-170.667-170.667z" />
<glyph unicode="&#xe929;" glyph-name="america-football-15" d="M514.048 746.057c-303.104 0-445.781-307.2-445.781-307.2s142.677-307.2 445.781-307.2 441.685 307.2 441.685 307.2-136.533 307.2-441.685 307.2zM750.933 472.99v-102.4c0-18.848-15.285-34.133-34.133-34.133s-34.133 15.285-34.133 34.133v34.133h-136.533v-34.133c0-18.848-15.285-34.133-34.133-34.133s-34.133 15.285-34.133 34.133v34.133h-136.533v-34.133c0-18.848-15.285-34.133-34.133-34.133s-34.133 15.285-34.133 34.133v136.533c0 18.848 15.285 34.133 34.133 34.133s34.133-15.285 34.133-34.133v-34.133h136.533v34.133c0 18.848 15.285 34.133 34.133 34.133s34.133-15.285 34.133-34.133v-34.133h136.533v34.133c0 18.848 15.285 34.133 34.133 34.133s34.133-15.285 34.133-34.133v-34.133z" />
<glyph unicode="&#xe92a;" glyph-name="amusement-park-15" d="M512 950.857c-244.463 0-443.733-199.27-443.733-443.733 0-158.112 83.633-296.851 208.664-375.467h-3.864l-68.267-136.533h614.4l-68.267 136.533h-3.864c125.030 78.616 208.664 217.354 208.664 375.467 0 244.463-199.27 443.733-443.733 443.733zM503.467 848.054v-238.933c-21.217-1.775-41.349-10.117-57.603-23.866l-168.933 168.933c59.235 56.347 138.479 91.703 226.536 93.867zM520.533 848.054c88.057-2.164 167.301-37.519 226.536-93.867l-168.933-168.933c-0.048 0.048-0.089 0.089-0.137 0.137-16.234 13.674-36.318 21.968-57.467 23.729v238.933zM264.936 742.193l168.933-168.933c-0.048-0.048-0.089-0.089-0.137-0.137-13.674-16.234-21.968-36.318-23.729-57.467h-238.933c2.164 88.057 37.519 167.301 93.867 226.536zM759.064 742.193c56.347-59.228 91.703-138.479 93.867-226.536h-238.933c-1.775 21.217-10.117 41.349-23.866 57.603l168.933 168.933zM171.069 498.59h238.933c1.775-21.217 10.117-41.349 23.866-57.603l-168.933-168.933c-56.347 59.235-91.703 138.479-93.867 226.536zM613.997 498.59h238.933c-2.164-88.057-37.519-167.301-93.867-226.536l-168.933 168.933c0.048 0.048 0.089 0.089 0.137 0.137 13.674 16.234 21.968 36.318 23.729 57.467zM445.863 428.992c0.048-0.048 0.089-0.089 0.137-0.137 9.448-7.912 20.241-14.056 31.867-18.132v-243.2c-77.844 7.673-147.497 41.697-200.936 92.535l168.933 168.933zM578.137 428.992l168.933-168.933c-53.439-50.838-123.085-84.855-200.936-92.535v243.2c11.68 4.103 22.528 10.295 32.003 18.268z" />
<glyph unicode="&#xe92b;" glyph-name="aquarium-15" d="M744.107 158.964c-20.48 40.96-20.48 157.013 0 191.147 27.307 40.96 232.107-95.573 232.107-95.573 61.44-27.307 61.44 416.427 0 389.12 0 0-211.627-143.36-232.107-95.573s-20.48 143.36 0 191.147c20.48 40.96 279.893 47.787 279.893 47.787 0 47.787-197.973 95.573-279.893 95.573s-170.667-6.827-279.893-54.613c-109.227-40.96-197.973-109.227-279.893-191.147s-184.32-245.76-184.32-293.547 102.4-191.147 252.587-252.587 225.28-75.093 307.2-88.747c75.093-6.827 177.493 0 266.24 20.48 68.267 13.653 197.973 47.787 197.973 75.093 0 13.653-259.413 20.48-279.893 61.44zM307.2 315.977c-54.613 0-102.4 47.787-102.4 102.4s47.787 102.4 102.4 102.4 102.4-47.787 102.4-102.4-47.787-102.4-102.4-102.4z" />
<glyph unicode="&#xe92c;" glyph-name="art-gallery-15" d="M731.136 677.79l-195.243 194.56c-13.278 13.387-34.884 13.476-48.271 0.198-0.068-0.068-0.13-0.13-0.198-0.198l-194.56-194.56h-190.464c-18.848 0-34.133-15.285-34.133-34.133v-614.4c0-18.848 15.285-34.133 34.133-34.133h819.2c18.848 0 34.133 15.285 34.133 34.133v614.4c0 18.848-15.285 34.133-34.133 34.133h-190.464zM512 799.988l122.197-122.197h-244.395l122.197 122.197zM887.467 63.39h-750.933v546.133h750.933v-546.133zM341.333 404.724c-37.704 0-68.267 30.563-68.267 68.267s30.563 68.267 68.267 68.267 68.267-30.563 68.267-68.267-30.563-68.267-68.267-68.267zM819.2 131.657h-512l102.4 204.8 85.333-170.667 153.6 307.2 170.667-341.333z" />
<glyph unicode="&#xe92d;" glyph-name="attraction-15" d="M409.6 814.324c-37.82 0-51.35-34.441-68.267-68.267l-34.133-68.267h-136.533c-56.73 0-102.4-45.67-102.4-102.4v-341.333c0-56.73 45.67-102.4 102.4-102.4h682.667c56.73 0 102.4 45.67 102.4 102.4v341.333c0 56.73-45.67 102.4-102.4 102.4h-136.533l-34.133 68.267c-17.067 34.133-30.447 68.267-68.267 68.267h-204.8zM170.667 609.524c18.848 0 34.133-15.285 34.133-34.133s-15.285-34.133-34.133-34.133-34.133 15.285-34.133 34.133 15.285 34.133 34.133 34.133zM512 609.524c113.111 0 204.8-91.689 204.8-204.8s-91.689-204.8-204.8-204.8-204.8 91.689-204.8 204.8 91.689 204.8 204.8 204.8zM512 507.124c-56.552 0-102.4-45.848-102.4-102.4v0c0-56.552 45.848-102.4 102.4-102.4v0c56.552 0 102.4 45.848 102.4 102.4v0c0 56.552-45.848 102.4-102.4 102.4v0z" />
<glyph unicode="&#xe92e;" glyph-name="bakery-15" d="M361.411 651.685l48.189-349.361c0 0 0-68.267 68.267-68.267h68.267c68.267 0 68.267 68.267 68.267 68.267l48.189 349.361c0 94.372-150.589 94.372-150.589 94.372s-150.801 0-150.589-94.372zM238.933 609.524c-102.4 0-102.4-68.267-102.4-68.267l68.267-273.067h102.4c51.541 0 54.211 52.204 54.211 52.204l-54.211 289.13h-68.267zM102.4 438.857c0 0-42.161 2.007-72.281-28.112-30.119-30.112-30.119-60.232-30.119-60.232v-150.589h60.239c76.295 0 76.295 68.267 76.295 68.267l-34.133 170.667zM785.067 609.524c102.4 0 102.4-68.267 102.4-68.267l-68.267-273.067h-102.4c-51.541 0-54.211 52.204-54.211 52.204l54.211 289.13h68.267zM921.6 438.857c0 0 42.161 2.007 72.281-28.112 30.119-30.112 30.119-60.232 30.119-60.232v-150.589h-60.239c-76.295 0-76.295 68.267-76.295 68.267l34.133 170.667z" />
<glyph unicode="&#xe92f;" glyph-name="bank-15" d="M68.267 746.057c-37.82 0-68.267-30.447-68.267-68.267v-477.867c0-37.82 30.447-68.267 68.267-68.267h887.467c37.82 0 68.267 30.447 68.267 68.267v477.867c0 37.82-30.447 68.267-68.267 68.267h-887.467zM68.267 677.79h102.4c18.848 0 34.133-15.285 34.133-34.133s-15.285-34.133-34.133-34.133-34.133 15.285-34.133 34.133l-34.133-34.133c18.848 0 34.133-15.285 34.133-34.133s-15.285-34.133-34.133-34.133-34.133 15.285-34.133 34.133v102.4zM512 677.79c94.256 0 170.667-106.974 170.667-238.933v0c0-131.959-76.411-238.933-170.667-238.933s-170.667 106.974-170.667 238.933 76.411 238.933 170.667 238.933zM853.333 677.79h102.4v-102.4c0-18.848-15.285-34.133-34.133-34.133s-34.133 15.285-34.133 34.133 15.285 34.133 34.133 34.133l-34.133 34.133c0-18.848-15.285-34.133-34.133-34.133s-34.133 15.285-34.133 34.133 15.285 34.133 34.133 34.133zM512 575.39c-22.050 0-36.427-7.427-46.531-17.067h93.068c-10.11 9.639-24.487 17.067-46.537 17.067zM452.267 541.257c-3.106-6.212-4.212-11.68-5.468-17.067h130.403c-1.256 5.386-2.362 10.854-5.468 17.067h-119.467zM443.733 507.124v-17.067h136.533v17.067h-136.533zM443.733 472.99v-17.067h136.533v17.067h-136.533zM443.733 438.857v-17.067h136.533v17.067h-136.533zM443.733 404.724l-17.067-17.067h136.533l17.067 17.067h-136.533zM409.6 370.59c0 0 2.41-6.991 6.936-17.067h155.197l-25.6 17.067h-136.533zM102.4 336.457c18.848 0 34.133-15.285 34.133-34.133s-15.285-34.133-34.133-34.133l34.133-34.133c0 18.848 15.285 34.133 34.133 34.133s34.133-15.285 34.133-34.133-15.285-34.133-34.133-34.133h-102.4v102.4c0 18.848 15.285 34.133 34.133 34.133zM425.868 336.457c3.133-5.844 5.195-10.854 9.332-17.067h154.801c4.547 9.414 7.332 17.067 7.332 17.067h-171.465zM921.6 336.457c18.848 0 34.133-15.285 34.133-34.133v-102.4h-102.4c-18.848 0-34.133 15.285-34.133 34.133s15.285 34.133 34.133 34.133 34.133-15.285 34.133-34.133l34.133 34.133c-18.848 0-34.133 15.285-34.133 34.133s15.285 34.133 34.133 34.133zM448.266 302.324c5.366-6.226 11.244-12.035 17.736-17.067h96.932c6.833 5.277 12.814 11.039 17.333 17.067h-132z" />
<glyph unicode="&#xe930;" glyph-name="bar-15" d="M512 882.59c-136.533 0-477.867-17.067-443.733-51.2l409.6-426.667v-273.067c0-68.267-204.8-34.133-204.8-136.533h477.867c0 102.4-204.8 68.267-204.8 136.533v273.067l409.6 426.667c34.133 34.133-307.2 51.2-443.733 51.2zM512 814.324c170.667 0 324.267-17.067 324.267-17.067l-51.2-51.2h-546.133l-51.2 51.2c0 0 153.6 17.067 324.267 17.067z" />
<glyph unicode="&#xe931;" glyph-name="barrier-15" d="M887.467 746.057h-750.933c-37.703 0-68.267-30.564-68.267-68.267v0-409.6c0-37.703 30.564-68.267 68.267-68.267v0h68.267v-170.667c0-18.851 15.282-34.133 34.133-34.133s34.133 15.282 34.133 34.133v0 34.133h477.867v-34.133c0-18.851 15.282-34.133 34.133-34.133s34.133 15.282 34.133 34.133v0 170.667h68.267c37.703 0 68.267 30.564 68.267 68.267v0 409.6c0 37.703-30.564 68.267-68.267 68.267v0zM887.467 677.79v-136.533l-136.533 136.533zM648.533 677.79l238.933-238.933v-170.667l-409.6 409.6zM375.467 268.19l-238.933 238.933v170.667l409.6-409.6zM136.533 268.19v136.533l136.533-136.533zM750.933 131.657h-477.867v68.267h477.867zM736.802 268.19h-88.269l-409.6 409.6h136.533l409.6-409.6z" />
<glyph unicode="&#xe932;" glyph-name="baseball-15" d="M682.667 711.924c0-56.552-45.848-102.4-102.4-102.4s-102.4 45.848-102.4 102.4 45.848 102.4 102.4 102.4 102.4-45.848 102.4-102.4zM477.867 931.742c0 10.554-8.561 19.115-19.115 19.115 0 0 0 0 0 0-6.683-1.789-12.643-5.605-17.067-10.923l-168.619-302.421c-0.403-2.942-0.403-5.932 0-8.875 0-10.554 8.561-19.115 19.115-19.115 6.929 1.659 13.148 5.482 17.749 10.923l167.936 302.421c0.41 2.942 0.41 5.932 0 8.875zM880.64-18.53v0l-197.973 533.163c-3.236 15.517-16.916 26.631-32.768 26.624h-341.333c-18.848 0-34.133-15.285-34.133-34.133s15.285-34.133 34.133-34.133h169.301l98.987-171.349-291.499-314.709c-7.789-6.362-12.302-15.886-12.288-25.941 0-18.848 15.285-34.133 34.133-34.133 8.356 0.041 16.391 3.209 22.528 8.875v0l303.787 283.307 188.416-273.067c6.11-10.868 17.572-17.64 30.037-17.749 19.087-0.014 34.761 15.066 35.499 34.133-0.287 6.915-2.662 13.585-6.827 19.115z" />
<glyph unicode="&#xe933;" glyph-name="basketball-15" d="M614.4 711.924c0-56.552-45.848-102.4-102.4-102.4s-102.4 45.848-102.4 102.4 45.848 102.4 102.4 102.4 102.4-45.848 102.4-102.4zM955.733 882.59c-37.704 0-68.267-30.563-68.267-68.267s30.563-68.267 68.267-68.267 68.267 30.563 68.267 68.267-30.563 68.267-68.267 68.267zM811.691 50.42l-197.291 246.443v210.261h34.133c11.394 0.123 21.941 6.042 27.989 15.701v0l132.437 165.205 4.096 5.461c3.83 5.4 5.967 11.817 6.144 18.432-0.259 18.848-15.756 33.915-34.604 33.655-9.107-0.123-17.783-3.884-24.105-10.445v0l-128.341-159.744h-256.683c-9.339-0.123-18.227-4.069-24.576-10.923v0l-136.533-173.397c-5.468-5.509-8.847-12.752-9.557-20.48 0-18.848 15.285-34.133 34.133-34.133 11.394 0.123 21.941 6.042 27.989 15.701v0l124.928 154.965h17.749v-210.261l-197.291-246.443c-4.724-5.796-7.366-13.005-7.509-20.48 0-18.848 15.285-34.133 34.133-34.133 11.394 0.123 21.941 6.042 27.989 15.701v0l204.8 257.365h78.507l204.8-257.365c6.048-9.66 16.596-15.578 27.989-15.701 18.848 0 34.133 15.285 34.133 34.133-0.143 7.475-2.785 14.684-7.509 20.48v0h2.048z" />
<glyph unicode="&#xe934;" glyph-name="bbq-15" d="M636.245 428.276c106.373 37.342 179.343 136.834 182.955 249.515h-614.4c3.618-111.268 74.943-209.77 179.541-247.876l-48.265-96.461c-92.645 16.077-180.784-45.991-196.861-138.636s45.991-180.784 138.636-196.861c62.983-10.936 126.785 14.336 165.199 65.434h288.29l22.869-48.947c5.707-11.844 17.708-19.36 30.857-19.319 5.004-0.020 9.946 1.079 14.473 3.209 17.046 7.987 24.405 28.269 16.452 45.329l-179.746 384.614zM307.2 80.457c-47.131 0-85.333 38.202-85.333 85.333s38.202 85.333 85.333 85.333 85.333-38.202 85.333-85.333c-0.109-47.084-38.25-85.224-85.333-85.333zM474.453 131.657c14.104 68.745-15.483 139.087-74.479 177.084l50.586 101.239c39.39-7.113 79.735-7.113 119.125 0l129.707-277.845-224.939-0.478zM324.267 882.59c-9.428 0-17.067-7.639-17.067-17.067 0-34.133-34.133-34.133-34.133-34.133-68.267 0-68.267-68.267-68.267-68.267 0-9.428 7.639-17.067 17.067-17.067s17.067 7.639 17.067 17.067c0 34.133 34.133 34.133 34.133 34.133 68.267 0 68.267 68.267 68.267 68.267 0 9.428-7.639 17.067-17.067 17.067zM460.8 882.59c-9.428 0-17.067-7.639-17.067-17.067 0-34.133-34.133-34.133-34.133-34.133-68.267 0-68.267-68.267-68.267-68.267 0-9.428 7.639-17.067 17.067-17.067s17.067 7.639 17.067 17.067c0 34.133 34.133 34.133 34.133 34.133 68.267 0 68.267 68.267 68.267 68.267 0 9.428-7.639 17.067-17.067 17.067zM597.333 882.59c-9.428 0-17.067-7.639-17.067-17.067 0-34.133-34.133-34.133-34.133-34.133-68.267 0-68.267-68.267-68.267-68.267 0-9.428 7.639-17.067 17.067-17.067s17.067 7.639 17.067 17.067c0 34.133 34.133 34.133 34.133 34.133 68.267 0 68.267 68.267 68.267 68.267 0 9.428-7.639 17.067-17.067 17.067zM733.867 882.59c-9.428 0-17.067-7.639-17.067-17.067 0-34.133-34.133-34.133-34.133-34.133-68.267 0-68.267-68.267-68.267-68.267 0-9.428 7.639-17.067 17.067-17.067s17.067 7.639 17.067 17.067c0 34.133 34.133 34.133 34.133 34.133 68.267 0 68.267 68.267 68.267 68.267 0 9.428-7.639 17.067-17.067 17.067zM870.4 882.59c-9.428 0-17.067-7.639-17.067-17.067 0-34.133-34.133-34.133-34.133-34.133-68.267 0-68.267-68.267-68.267-68.267 0-9.428 7.639-17.067 17.067-17.067s17.067 7.639 17.067 17.067c0 34.133 34.133 34.133 34.133 34.133 68.267 0 68.267 68.267 68.267 68.267 0 9.428-7.639 17.067-17.067 17.067z" />
<glyph unicode="&#xe935;" glyph-name="beer-15" d="M819.2 609.524v204.8c0 0-68.267 68.267-307.2 68.267s-307.2-68.267-307.2-68.267v-204.8c1.966-94.993 25.3-188.32 68.267-273.067 42.701-97.949 42.701-209.251 0-307.2 0 0 0-68.267 238.933-68.267s238.933 68.267 238.933 68.267c-42.701 97.949-42.701 209.251 0 307.2 42.967 84.746 66.301 178.074 68.267 273.067zM512 29.257c-54.381-2.389-108.797 4.069-161.109 19.115 13.858 49.316 20.753 100.325 20.48 151.552h281.259c-0.273-51.227 6.622-102.236 20.48-151.552-52.313-15.046-106.728-21.504-161.109-19.115zM512 609.524c-80.992-2.041-161.751 9.496-238.933 34.133v136.533c77.21 24.501 157.949 36.031 238.933 34.133 80.985 1.898 161.724-9.632 238.933-34.133v-136.533c-77.182-24.637-157.942-36.175-238.933-34.133z" />
<glyph unicode="&#xe936;" glyph-name="bicycle-15" d="M512 814.324c-46.155 0.683-46.155-68.922 0-68.267h102.4v-86.398l-191.331-159.334-66.54 177.466h18.937c46.155-0.683 46.155 68.922 0 68.267h-136.533c-46.155 0.683-46.155-68.922 0-68.267h44.53l60.805-162.133c-31.935 15.879-67.386 25.6-105.335 25.6-131.557 0-238.933-107.377-238.933-238.933s107.377-238.933 238.933-238.933 238.933 107.377 238.933 238.933c0 45.732-13.674 88.139-36.134 124.532l192.532 160.399 31.601-79.203c-71.168-41.458-119.733-117.746-119.733-205.728 0-131.557 107.377-238.933 238.933-238.933s238.933 107.377 238.933 238.933-107.377 238.933-238.933 238.933c-19.326 0-37.847-2.963-55.869-7.332l-46.531 116.401v129.864c0 18.848-15.285 34.133-34.133 34.133h-136.533zM238.933 472.99c40.434 0 76.977-14.466 106.134-37.731l-128-106.667c-34.877-29.17 8.724-81.545 43.732-52.531l128 106.667c12.848-24.016 20.801-51.125 20.801-80.404 0-94.659-76.008-170.667-170.667-170.667s-170.667 76.008-170.667 170.667 76.001 170.667 170.667 170.667v0zM785.067 472.99c94.659 0 170.667-76.008 170.667-170.667s-76.008-170.667-170.667-170.667-170.667 76.008-170.667 170.667c0 59.87 30.502 112.101 76.8 142.534l62.136-155.197c16.794-42.537 80.582-17.073 63.468 25.334l-62 154.931c9.844 1.748 19.893 3.065 30.263 3.065v0z" />
<glyph unicode="&#xe937;" glyph-name="bicycle-share-15" d="M682.667 882.59c-37.704 0-68.267-30.563-68.267-68.267s30.563-68.267 68.267-68.267 68.267 30.563 68.267 68.267c0 37.704-30.563 68.267-68.267 68.267zM555.998 746.46c-8.875-0.034-17.388-3.529-23.736-9.735l-180.265-170.667c-15.401-14.527-14.001-39.424 2.935-52.135l122.935-92.133v-187.733c-0.683-46.162 68.922-46.162 68.267 0v204.8c0.020 10.745-5.018 20.869-13.599 27.334l-52.401 39.335 124.109 117.501 51.091-68.164c6.465-8.588 16.589-13.626 27.334-13.606h102.4c46.155-0.683 46.155 68.922 0 68.267h-85.333l-92.133 122.935c-6.151 8.438-15.831 13.599-26.269 14.001h-25.334zM204.8 472.99c-113.111 0-204.8-91.696-204.8-204.8s91.689-204.8 204.8-204.8 204.8 91.696 204.8 204.8-91.689 204.8-204.8 204.8zM819.2 472.99c-113.111 0-204.8-91.696-204.8-204.8s91.689-204.8 204.8-204.8 204.8 91.696 204.8 204.8-91.689 204.8-204.8 204.8zM204.8 404.724c75.407 0 136.533-61.126 136.533-136.533s-61.126-136.533-136.533-136.533-136.533 61.126-136.533 136.533 61.126 136.533 136.533 136.533zM819.2 404.724c75.407 0 136.533-61.126 136.533-136.533s-61.126-136.533-136.533-136.533-136.533 61.126-136.533 136.533 61.126 136.533 136.533 136.533z" />
<glyph unicode="&#xe938;" glyph-name="blood-bank-15" d="M764.587 466.164v0l-252.587 348.16-252.587-348.16c-34.133-47.787-54.613-109.227-54.613-170.667 0-163.84 136.533-300.373 307.2-300.373 0 0 0 0 0 0 170.667 0 307.2 136.533 307.2 300.373 0 0 0 0 0 0 0 61.44-20.48 122.88-54.613 170.667zM682.667 268.19h-136.533v-136.533h-68.267v136.533h-136.533v68.267h136.533v136.533h68.267v-136.533h136.533v-68.267z" />
<glyph unicode="&#xe939;" glyph-name="boot-15" d="M375.467 289.1l-39.67 13.223h-233.397v-102.4c0-18.851 15.282-34.133 34.133-34.133v0h273.067c18.851 0 34.133 15.282 34.133 34.133v0 66.41l-34.133 11.414zM853.333 507.124h-136.533v-34.133c0-18.851-15.282-34.133-34.133-34.133v0c-18.708 0.353-33.78 15.426-34.133 34.1v55.268l-44.776 22.385-33.492-33.492c-5.911-6.172-14.219-10.009-23.423-10.009-6.498 0-12.549 1.912-17.622 5.204l0.126-0.077c-5.572 2.314-9.913 6.654-12.172 12.079l-0.054 0.148c-3.011 4.941-4.793 10.916-4.793 17.309 0 9.201 3.693 17.54 9.678 23.615l33.494 33.494-22.398 44.776h-55.235c-18.851 0-34.133 15.282-34.133 34.133s15.282 34.133 34.133 34.133v0h34.133v102.4c0 18.851-15.282 34.133-34.133 34.133v0h-273.067c-9.425-0.002-17.957-3.824-24.132-10.001l-68.267-68.267c-6.177-6.176-9.999-14.707-10.001-24.132v0-375.467h238.933c3.864-0.010 7.577-0.644 11.047-1.806l-0.247 0.072 199.537-66.533h369.93v136.533c-0.039 37.687-30.58 68.228-68.263 68.267h-0.004zM853.333 234.057h-341.333v-34.133c0-18.851 15.282-34.133 34.133-34.133v0h341.333c18.851 0 34.133 15.282 34.133 34.133v0 34.133h-68.267z" />
<glyph unicode="&#xe93a;" glyph-name="buddhism-15" d="M921.45 473.065h-36.379c-6.825 75.577-36.542 147.272-85.183 205.517l25.805 25.832c13.384 13.276 13.471 34.888 0.195 48.271-13.038 13.143-34.176 13.498-47.647 0.799v0l-26.624-26.644c-58.253 48.673-129.969 78.414-205.571 85.251v36.366c0 18.851-15.282 34.133-34.133 34.133s-34.133-15.282-34.133-34.133v-36.366c-75.578-6.851-147.269-36.592-205.503-85.251l-25.832 26.044c-13.649 13.003-35.254 12.481-48.258-1.167-12.561-13.184-12.561-33.907 0-47.090l25.832-25.771c-48.717-58.311-78.462-130.11-85.251-205.79h-36.366c-18.851 0-34.133-15.282-34.133-34.133s15.282-34.133 34.133-34.133h36.366c6.818-75.568 36.523-147.259 85.149-205.503l-25.798-25.798c-13.338-13.322-13.351-34.934-0.029-48.272 13.007-13.023 33.995-13.388 47.447-0.825l26.638 26.638c58.252-48.682 129.976-78.425 205.585-85.251v-36.379c0-18.851 15.282-34.133 34.133-34.133s34.133 15.282 34.133 34.133v36.379c75.584 6.844 147.281 36.585 205.517 85.251l25.798-25.798c13.322-13.338 34.934-13.351 48.272-0.029 13.023 13.007 13.388 33.995 0.825 47.447l-26.638 26.638c48.663 58.238 78.403 129.934 85.251 205.517h36.379c18.848 0.371 33.825 15.951 33.455 34.799-0.361 18.317-15.118 33.082-33.434 33.454zM546.045 742.61c57.256-6.313 111.536-28.777 156.508-64.771l-146.773-146.773c-3.183 1.488-6.442 2.81-9.762 3.959v207.585h0.027zM477.778 742.61v-207.565c-3.32-1.15-6.579-2.471-9.762-3.959l-146.773 146.773c44.986 35.994 99.281 58.451 156.549 64.751h-0.014zM272.978 629.58l146.773-146.773c-1.488-3.183-2.81-6.442-3.959-9.762h-207.544c6.31 57.266 28.777 111.557 64.778 156.535h-0.048zM208.247 404.812h207.565c1.152-3.32 2.473-6.578 3.959-9.762l-146.773-146.773c-35.995 44.98-58.453 99.271-64.751 156.535zM477.792 135.268c-57.256 6.313-111.536 28.777-156.508 64.771l146.773 146.773c3.183-1.488 6.442-2.81 9.762-3.959v-207.565l-0.027-0.020zM546.058 135.268v207.565c3.32 1.149 6.58 2.471 9.762 3.959l146.773-146.773c-44.984-35.997-99.28-58.455-156.549-64.751h0.014zM750.858 248.297l-146.773 146.773c1.486 3.184 2.808 6.442 3.959 9.762h207.633c-6.332-57.276-28.83-111.568-64.867-156.535h0.048zM608.024 473.065c-1.15 3.32-2.471 6.579-3.959 9.762l146.773 146.773c35.994-44.972 58.458-99.252 64.771-156.508l-207.585-0.027z" />
<glyph unicode="&#xe93b;" glyph-name="building-15" d="M204.8 814.324v-750.933h341.333v204.8h204.8v-204.8h68.267v750.933h-614.4zM477.867 131.657h-204.8v136.533h204.8v-136.533zM477.867 336.457h-204.8v136.533h204.8v-136.533zM477.867 541.257h-204.8v136.533h204.8v-136.533zM750.933 336.457h-204.8v136.533h204.8v-136.533zM750.933 541.257h-204.8v136.533h204.8v-136.533z" />
<glyph unicode="&#xe93c;" glyph-name="building-alt1-15" d="M750.933 29.257v614.4c0 20.48-13.653 34.133-34.133 34.133h-102.4v204.8l-273.067-75.093v-778.24h-204.8v-34.133h750.933v34.133h-136.533zM477.867 29.257v716.8h68.267v-716.8h-68.267z" />
<glyph unicode="&#xe93d;" glyph-name="bus-15" d="M273.067 950.857c-93.088 0-204.8-50.743-204.8-187.467v-631.733c0 0 0-68.267 68.267-68.267v-68.267c0 0 0-68.267 68.267-68.267s68.267 68.267 68.267 68.267v68.267h477.867v-68.267c0 0 0-68.267 68.267-68.267s68.267 68.267 68.267 68.267v68.267c0 0 68.267 0 68.267 68.267v631.733c0 139.639-84.378 187.467-177.466 187.467h-505.201zM290.133 848.457h443.733c9.455 0 17.067-7.612 17.067-17.067s-7.612-17.067-17.067-17.067h-443.733c-9.455 0-17.067 7.612-17.067 17.067s7.612 17.067 17.067 17.067zM204.8 746.057h614.4c68.267 0 68.267-66 68.267-66v-207.066c0 0 0-68.267-68.267-68.267h-614.4c-68.267 0-68.267 68.267-68.267 68.267v204.8c0 0 0 68.267 68.267 68.267zM204.8 268.19c37.704 0 68.267-30.563 68.267-68.267s-30.563-68.267-68.267-68.267-68.267 30.563-68.267 68.267 30.563 68.267 68.267 68.267zM819.2 268.19c37.704 0 68.267-30.563 68.267-68.267s-30.563-68.267-68.267-68.267-68.267 30.563-68.267 68.267 30.563 68.267 68.267 68.267z" />
<glyph unicode="&#xe93e;" glyph-name="cafe-15" d="M819.2 609.524h-136.533v136.533h-546.133v-273.067c0.908-150.808 123.897-272.323 274.705-271.415 96.29 0.58 185.153 51.828 233.882 134.881h174.080c75.407 0 136.533 61.126 136.533 136.533s-61.126 136.533-136.533 136.533zM819.2 404.724h-146.091c6.055 22.262 9.271 45.199 9.557 68.267v68.267h136.533c37.704 0 68.267-30.563 68.267-68.267s-30.563-68.267-68.267-68.267zM682.667 97.524c0-18.848-15.285-34.133-34.133-34.133h-477.867c-18.848 0-34.133 15.285-34.133 34.133s15.285 34.133 34.133 34.133h477.867c18.848 0 34.133-15.285 34.133-34.133z" />
<glyph unicode="&#xe93f;" glyph-name="campsite-15" d="M477.867 848.457l-375.467-614.4h-34.133c-68.267 0-68.267-68.267-68.267-68.267v-68.267c0 0 0-68.267 68.267-68.267h887.467c68.267 0 68.267 68.267 68.267 68.267v68.267c0 0 0 68.267-68.267 68.267h-34.133l-375.467 614.4c-13.653 27.307-54.613 27.307-68.267 0zM512 609.524l218.453-375.467h-443.733l225.28 375.467z" />
<glyph unicode="&#xe940;" glyph-name="car-15" d="M955.733 472.99c-0.273 47.131-32.679 87.989-78.507 98.987l-94.891 221.184c-5.236 12.745-17.62 21.094-31.403 21.163h-477.867c-12.807-0.232-24.405-7.612-30.037-19.115v0 0 0l-96.256-222.549c-46.080-11.059-78.548-52.285-78.507-99.669v-238.933h68.267v-68.267c0-37.704 30.563-68.267 68.267-68.267s68.267 30.563 68.267 68.267v68.267h477.867v-68.267c0-37.704 30.563-68.267 68.267-68.267s68.267 30.563 68.267 68.267v68.267h68.267v238.933zM293.547 746.057h436.907l71.68-170.667h-580.267l71.68 170.667zM204.8 336.457c-37.704 0-68.267 30.563-68.267 68.267s30.563 68.267 68.267 68.267 68.267-30.563 68.267-68.267-30.563-68.267-68.267-68.267zM819.2 336.457c-37.704 0-68.267 30.563-68.267 68.267s30.563 68.267 68.267 68.267 68.267-30.563 68.267-68.267-30.563-68.267-68.267-68.267z" />
<glyph unicode="&#xe941;" glyph-name="castle-15" d="M750.933 677.79h-477.867c-37.704 0-68.267 30.563-68.267 68.267v170.667c0 18.848 15.285 34.133 34.133 34.133s34.133-15.285 34.133-34.133v-102.4h68.267v68.267c0 37.704 30.563 68.267 68.267 68.267s68.267-30.563 68.267-68.267v-68.267h68.267v68.267c0 37.704 30.563 68.267 68.267 68.267s68.267-30.563 68.267-68.267v-68.267h68.267v102.4c0 18.848 15.285 34.133 34.133 34.133s34.133-15.285 34.133-34.133v-170.667c0-37.704-30.563-68.267-68.267-68.267zM955.733-39.010c0-18.848-15.285-34.133-34.133-34.133h-819.2c-18.848 0-34.133 15.285-34.133 34.133s15.285 34.133 34.133 34.133h34.133c37.704 0 68.267 30.563 68.267 68.267 0 0 68.267 409.6 68.267 477.867 0 37.704 30.563 68.267 68.267 68.267h341.333c37.704 0 68.267-30.563 68.267-68.267 0-68.267 68.267-477.867 68.267-477.867 0-37.704 30.563-68.267 68.267-68.267h34.133c18.589 0.007 33.765-14.868 34.133-33.451v-0.683zM614.4 234.057c0 56.552-45.848 102.4-102.4 102.4s-102.4-45.848-102.4-102.4v-238.933h204.8v238.933z" />
<glyph unicode="&#xe942;" glyph-name="cemetery-15" d="M782.336 131.657h-46.421l83.285 576.853c1.195 19.572-13.708 36.4-33.273 37.594-1.652 0.096-3.311 0.082-4.956-0.048h-80.555c0 62.805-83.968 136.533-187.733 136.533s-187.051-73.728-187.051-136.533h-83.968c-19.593 0.785-36.106-14.452-36.898-34.045-0.048-1.167-0.034-2.335 0.034-3.502l81.92-576.853h-44.373c-19.736 0.778-36.441-14.418-37.547-34.133v-102.4h614.4v103.083c-1.099 19.34-17.51 34.229-36.864 33.451zM307.2 609.524h409.6v-68.267h-409.6v68.267z" />
<glyph unicode="&#xe943;" glyph-name="cinema-15" d="M955.733 438.857v-136.533c0-18.848-15.285-34.133-34.133-34.133s-34.133 15.285-34.133 34.133c0 0 4.096 34.133-68.267 34.133h-68.267v-170.667c0-18.848-15.285-34.133-34.133-34.133h-546.133c-18.848 0-34.133 15.285-34.133 34.133v273.067c0 18.848 15.285 34.133 34.133 34.133h546.133c18.848 0 34.133-15.285 34.133-34.133v-34.133h68.267c72.363 0 68.267 34.133 68.267 34.133 0 18.848 15.285 34.133 34.133 34.133s34.133-15.285 34.133-34.133zM273.067 746.057c-75.407 0-136.533-61.126-136.533-136.533s61.126-136.533 136.533-136.533 136.533 61.126 136.533 136.533-61.126 136.533-136.533 136.533zM273.067 541.257c-37.704 0-68.267 30.563-68.267 68.267s30.563 68.267 68.267 68.267 68.267-30.563 68.267-68.267-30.563-68.267-68.267-68.267zM580.267 814.324c-94.256 0-170.667-76.411-170.667-170.667s76.411-170.667 170.667-170.667 170.667 76.411 170.667 170.667-76.411 170.667-170.667 170.667zM580.267 541.257c-56.552 0-102.4 45.848-102.4 102.4s45.848 102.4 102.4 102.4 102.4-45.848 102.4-102.4-45.848-102.4-102.4-102.4z" />
<glyph unicode="&#xe944;" glyph-name="circle-15" d="M955.733 438.857c0-245.071-198.663-443.733-443.733-443.733s-443.733 198.663-443.733 443.733 198.663 443.733 443.733 443.733 443.733-198.663 443.733-443.733z" />
<glyph unicode="&#xe945;" glyph-name="circle-stroked-15" d="M512 950.857c282.774 0 512-229.226 512-512s-229.226-512-512-512-512 229.226-512 512 229.226 512 512 512zM512 837.084c-219.935 0-398.22-178.292-398.22-398.227s178.285-398.227 398.22-398.227 398.22 178.292 398.22 398.227-178.285 398.227-398.22 398.227z" />
<glyph unicode="&#xe946;" glyph-name="city-15" d="M930.939 677.831h-111.869v180.128c-0.004 13.607-11.037 24.635-24.644 24.631v0h-18.978c-13.607 0-24.637-11.031-24.637-24.637v0-180.122h-111.834c-13.607 0-24.637-11.031-24.637-24.637v0 0-384.894h-248.286c-13.682 0-24.774-11.092-24.774-24.774v-223.539c0.038-13.655 11.119-24.706 24.774-24.706h564.886c13.607 0 24.637 11.031 24.637 24.637v0 633.296c0 13.607-11.031 24.637-24.637 24.637v0-0.020zM477.792 131.787h-68.267v68.267h68.267v-68.267zM614.325 131.787h-68.267v68.267h68.267v-68.267zM750.858 131.787h-68.267v68.267h68.267v-68.267zM750.858 268.32h-68.267v68.267h68.267v-68.267zM750.858 404.853h-68.267v68.267h68.267v-68.267zM750.858 541.387h-68.267v68.267h68.267v-68.267zM887.392 131.855h-68.267v68.267h68.267v-68.267zM887.392 268.388h-68.267v68.267h68.267v-68.267zM887.392 404.922h-68.267v68.267h68.267v-68.267zM887.392 541.455h-68.267v68.267h68.267v-68.267zM546.045 857.96c-0.004 13.604-11.033 24.631-24.637 24.631h-155.498c-13.607 0-24.637-11.031-24.637-24.637v0-111.896h-111.896c-13.559-0.033-24.543-11.017-24.576-24.576v0-43.65h-111.903c-13.596-0.003-24.619-11.021-24.631-24.617v0-633.276c0-13.607 11.031-24.637 24.637-24.637h180.122v341.251h273.019v521.407zM204.8 131.787h-68.267v68.267h68.267v-68.267zM204.8 268.32h-68.267v68.267h68.267v-68.267zM204.8 404.853h-68.267v68.267h68.267v-68.267zM204.8 541.387h-68.267v68.267h68.267v-68.267zM341.333 404.853h-68.267v68.267h68.267v-68.267zM341.333 541.387h-68.267v68.267h68.267v-68.267zM477.867 404.853h-68.267v68.267h68.267v-68.267zM477.867 541.387h-68.267v68.267h68.267v-68.267zM477.867 677.92h-68.267v68.137h68.267v-68.137z" />
<glyph unicode="&#xe947;" glyph-name="clothing-store-15" d="M238.933 882.59l-238.933-204.8v-204.8h197.973l6.827-477.867h614.4v477.867h204.8v204.8l-238.933 204.8h-102.4l-170.667-273.067-170.667 273.067h-102.4z" />
<glyph unicode="&#xe948;" glyph-name="college-15" d="M512 882.59l-512-238.933 136.533-61.44v-116.053c-40.96-13.653-68.267-54.613-68.267-95.573s27.307-81.92 68.267-95.573v-6.827l-61.44-143.36c-20.48-61.44-6.827-129.707 95.573-129.707s116.053 68.267 95.573 129.707l-61.44 143.36c40.96 20.48 68.267 54.613 68.267 102.4s-27.307 81.92-68.267 95.573v81.92l307.2-143.36 512 238.933-512 238.933zM812.373 438.857l-307.2-136.533-163.84 75.093v-6.827c0-47.787-20.48-88.747-54.613-122.88l40.96-95.573v-6.827c6.827-27.307 13.653-54.613 6.827-81.92 47.787-20.48 102.4-34.133 170.667-34.133 225.28 0 307.2 136.533 307.2 204.8v204.8z" />
<glyph unicode="&#xe949;" glyph-name="commercial-15" d="M955.733 472.99h-887.467c6.014 94.406 29.15 186.935 68.267 273.067h750.933c39.124-86.132 62.252-178.661 68.267-273.067zM204.8 404.724h614.4v-409.6h-68.267v341.333h-204.8v-341.333h-341.333v409.6zM273.067 199.924h204.8v136.533h-204.8v-136.533z" />
<glyph unicode="&#xe94a;" glyph-name="cricket-15" d="M546.133 848.457c0-56.552-45.848-102.4-102.4-102.4s-102.4 45.848-102.4 102.4 45.848 102.4 102.4 102.4 102.4-45.848 102.4-102.4zM742.741 460.702v0l-136.533 136.533c-6.724 8.083-16.8 12.616-27.307 12.288h-322.901c-25.696 0.58-47.732-18.22-51.2-43.691v0l-68.267-525.653c-0.464-3.168-0.464-6.39 0-9.557 0-18.848 15.285-34.133 34.133-34.133 15.367-1.044 29.457 8.54 34.133 23.211v0l81.92 265.557 17.749 56.661 27.307-30.037 77.824-84.651v-197.973c0-18.848 15.285-34.133 34.133-34.133s34.133 15.285 34.133 34.133v204.8c-0.553 5.379-2.43 10.54-5.461 15.019v0l-98.304 121.515 68.267 170.667h116.736l136.533-125.611c6.335-7.352 15.551-11.585 25.259-11.605 17.497 2.109 30.515 17.196 30.037 34.816-0.020 8.028-2.929 15.783-8.192 21.845zM955.733 181.492c-28.276 0-51.2-22.924-51.2-51.2s22.924-51.2 51.2-51.2 51.2 22.924 51.2 51.2-22.924 51.2-51.2 51.2zM734.549 285.94v50.517c0 9.428-7.639 17.067-17.067 17.067s-17.067-7.639-17.067-17.067v-50.517c-10.39-5.837-16.889-16.759-17.067-28.672v-228.011c0-18.848 15.285-34.133 34.133-34.133s34.133 15.285 34.133 34.133v228.011c-0.177 11.913-6.676 22.835-17.067 28.672z" />
<glyph unicode="&#xe94b;" glyph-name="cross-15" d="M180.224 864.158l331.776-331.776 330.411 330.411c11.701 12.452 27.969 19.599 45.056 19.797 37.704 0 68.267-30.563 68.267-68.267 0.321-16.916-6.349-33.219-18.432-45.056l-333.824-330.411 333.824-333.824c11.25-11.005 17.852-25.914 18.432-41.643 0-37.704-30.563-68.267-68.267-68.267-17.592-0.73-34.679 5.96-47.104 18.432l-328.363 331.776-331.093-331.093c-11.653-12.035-27.628-18.917-44.373-19.115-37.704 0-68.267 30.563-68.267 68.267-0.321 16.916 6.349 33.219 18.432 45.056l333.824 330.411-333.824 333.824c-11.25 11.005-17.852 25.914-18.432 41.643 0 37.704 30.563 68.267 68.267 68.267 16.411-0.198 32.092-6.813 43.691-18.432z" />
<glyph unicode="&#xe94c;" glyph-name="dam-15" d="M951.637 302.324c0-18.848-15.285-34.133-34.133-34.133v0c-17.681-1.495-34.092-9.824-45.739-23.211-18.528-19.709-42.155-33.888-68.267-40.96-41.745-12.397-86.931-2.895-120.149 25.259l-26.624 23.893c-20.316 20.739-53.596 21.074-74.336 0.758-0.253-0.253-0.505-0.505-0.758-0.758-9.557-8.192-18.432-17.067-28.672-25.259-49.684-39.485-120.579-37.472-167.936 4.779l-23.211 22.528-6.827 4.096 20.48-83.285 33.451-136.533c5.659-17.981-4.328-37.144-22.303-42.81-3.604-1.133-7.373-1.659-11.148-1.563h-273.067c-18.848 0-34.133 15.285-34.133 34.133v819.2c0 18.848 15.285 34.133 34.133 34.133h75.093c16.015 0.075 29.928-10.998 33.451-26.624l62.123-250.539v-9.557c44.844 21.436 98.038 15.053 136.533-16.384 10.923-8.875 21.163-19.115 32.085-27.989 19.436-17.381 48.831-17.381 68.267 0 10.923 8.875 21.163 19.115 32.085 27.989 48.305 40.742 118.948 40.742 167.253 0 10.24-8.875 19.797-18.432 30.037-26.624 19.436-17.381 48.831-17.381 68.267 0l32.085 27.989c21.593 18.241 48.872 28.378 77.141 28.672v0c18.848 0 34.133-15.285 34.133-34.133s-15.285-34.133-34.133-34.133v0c-17.681-1.495-34.092-9.824-45.739-23.211-18.528-19.709-42.155-33.888-68.267-40.96-41.745-12.397-86.931-2.895-120.149 25.259l-22.528 23.211c-20.316 20.739-53.596 21.074-74.336 0.758-0.253-0.253-0.505-0.505-0.758-0.758-9.557-8.192-18.432-17.067-28.672-25.259-49.684-39.485-120.579-37.472-167.936 4.779l-26.624 23.211c-19.436 17.381-48.831 17.381-68.267 0l-4.096-3.413 47.104-188.416c26.801-1.98 52.326-12.24 73.045-29.355 10.923-8.875 21.163-19.115 32.085-27.989 19.436-17.381 48.831-17.381 68.267 0 10.923 8.875 21.163 19.115 32.085 27.989 48.305 40.742 118.948 40.742 167.253 0 10.24-8.875 19.797-18.432 30.037-26.624 19.436-17.381 48.831-17.381 68.267 0l32.085 27.989c21.688 17.995 48.961 27.887 77.141 27.989v0c18.848 0.375 34.434-14.595 34.809-33.444 0.007-0.232 0.007-0.457 0.007-0.689z" />
<glyph unicode="&#xe94d;" glyph-name="danger-15" d="M951.637-51.298c-5.113-13.244-17.886-21.948-32.085-21.845-4.062-0.73-8.226-0.73-12.288 0l-395.264 166.571-395.947-166.571c-17.558-6.861-37.356 1.816-44.209 19.374-0.055 0.143-0.109 0.28-0.164 0.423-8.813 16.664-2.444 37.321 14.227 46.128 1.782 0.942 3.645 1.727 5.571 2.342l331.093 136.533-331.093 136.533c-18.036 5.482-28.215 24.549-22.733 42.585s24.549 28.215 42.585 22.733c1.618-0.492 3.195-1.106 4.724-1.83l395.947-164.523 395.947 164.523c17.026 8.090 37.39 0.847 45.479-16.179s0.847-37.39-16.179-45.479c-1.529-0.73-3.106-1.338-4.724-1.83l-331.776-136.533 331.093-136.533c17.797-6.212 27.191-25.675 20.985-43.472-0.348-1.004-0.744-1.987-1.188-2.949zM819.2 662.089v-30.72c-0.143-14.534-4.929-28.645-13.653-40.277-38.134-42.209-79.196-81.674-122.88-118.101v-79.189c0.102-14.199-8.602-26.972-21.845-32.085l-147.456-59.392h-4.779l-148.139 59.392c-12.179 5.953-19.681 18.541-19.115 32.085v79.189c-44.182 36.352-85.702 75.824-124.245 118.101-8.24 11.796-12.541 25.894-12.288 40.277v30.72c11.394 151.436 129.529 273.019 280.576 288.768h51.2c151.975-14.548 271.346-136.513 282.624-288.768zM409.6 677.79c0 37.704-30.563 68.267-68.267 68.267s-68.267-30.563-68.267-68.267 30.563-68.267 68.267-68.267 68.267 30.563 68.267 68.267zM477.867 472.99c0 18.848-15.285 34.133-34.133 34.133s-34.133-15.285-34.133-34.133v-34.133c0-18.848 15.285-34.133 34.133-34.133s34.133 15.285 34.133 34.133v34.133zM614.4 472.99c0 18.848-15.285 34.133-34.133 34.133s-34.133-15.285-34.133-34.133v-34.133c0-18.848 15.285-34.133 34.133-34.133s34.133 15.285 34.133 34.133v34.133zM750.933 677.79c0 37.704-30.563 68.267-68.267 68.267s-68.267-30.563-68.267-68.267 30.563-68.267 68.267-68.267 68.267 30.563 68.267 68.267z" />
<glyph unicode="&#xe94e;" glyph-name="defibrillator-15" d="M105.813 518.176c-162.939 313.788 247.808 522.984 406.323 209.196 158.481 313.788 569.255 104.598 406.344-209.196-5.932-11.407-13.844-23.593-21.258-35.581h-123.419l-123.87 185.795c-7.764 11.517-20.761 18.991-35.503 18.991-17.859 0-33.156-10.969-39.522-26.537l-0.103-0.285-112.531-281.259-90.795 90.795c-7.718 7.712-18.374 12.484-30.145 12.493h-214.284c-7.414 11.994-15.326 24.18-21.238 35.587zM750.933 397.255c-14.751 0.005-27.755 7.48-35.436 18.847l-0.096 0.151-91.532 137.291-106.407-266.022c-5.379-13.204-16.812-22.955-30.756-25.892l-0.278-0.049c-2.521-0.547-5.416-0.861-8.385-0.861-0.062 0-0.124 0-0.185 0h0.010c-0.008 0-0.017 0-0.026 0-11.767 0-22.422 4.763-30.142 12.466l-124.033 124.067h-136.902c95.528-116.115 195.132-220.331 301.912-316.751l2.557-2.273c5.596-5.068 13.055-8.17 21.238-8.17s15.642 3.102 21.265 8.194l-0.027-0.024c108.94 98.756 208.327 202.96 299.769 313.956l4.052 5.068h-86.596z" />
<glyph unicode="&#xe94f;" glyph-name="dentist-15" d="M297.643-4.876c-68.267 0-38.229 182.272-58.709 341.333-6.827 51.883-68.267 101.717-76.459 140.629-25.941 132.437-67.584 375.467 87.381 405.504s159.744-136.533 264.875-136.533 107.179 161.109 262.827 136.533 108.544-266.24 88.064-402.773c-6.827-30.72-75.093-101.035-80.555-140.629-22.528-163.84 21.845-341.333-54.613-341.333-63.488 0-90.112 185.685-136.533 307.2-18.432 56.661-43.691 99.669-79.189 99.669-105.131 0-122.197-409.6-217.088-409.6z" />
</font>
</defs>
</svg>
