<?xml version="1.0" encoding="utf-8"?>
<!-- Generator: Adobe Illustrator 21.0.2, SVG Export Plug-In . SVG Version: 6.00 Build 0)  -->
<svg version="1.1" id="Livello_1" xmlns="http://www.w3.org/2000/svg" xmlns:xlink="http://www.w3.org/1999/xlink" x="0px" y="0px"
	 viewBox="0 0 1000 1000" style="enable-background:new 0 0 1000 1000;" xml:space="preserve">
<style type="text/css">
	.st0{fill:#FFFFFF;}
</style>
<g>
	<path class="st0" d="M500.1,990.4c-274.9-3.9-490.2-216-490.1-491C10.1,224.7,225,9.6,499.9,9.6C775.1,9.5,990.7,225.3,990,500.9
		C989.3,774.6,774.9,986.4,500.1,990.4z M500.2,63.2C260,62.9,64,258,63.6,497.8c-0.4,242,194.1,437.6,435.9,438.1
		c240.1,0.5,436.5-194.7,436.9-434.4C936.8,259.2,742,63.5,500.2,63.2z"/>
	<path class="st0" d="M706.2,141.1c-3.1,17.1-6,32.6-8.8,48c-14.8,79.7-29.5,159.5-44.3,239.2c-8.7,46.7-17.3,93.5-26.1,140.2
		c-0.4,2.2-1.9,4.7-3.6,6.2C542.6,643.8,461.8,712.8,381,781.8c-27.7,23.7-55.5,47.3-83.2,70.9c-1.2,1-2.5,1.9-4.8,3.8
		c1.9-10.3,3.4-19.3,5.1-28.3c24.6-132.9,49.2-265.8,74-398.6c0.5-2.5,2.3-5.3,4.3-7c62.5-53.5,125.2-106.9,187.8-160.4
		c46.1-39.3,92.1-78.7,138.2-118C703.1,143.6,704,142.9,706.2,141.1z M341.9,770.7c0.4,0.2,0.7,0.5,1.1,0.7
		c84.6-71.9,169.2-143.8,254.2-216c-65.1-37.6-129.5-74.8-194.4-112.2C382.4,552.9,362.2,661.8,341.9,770.7z"/>
</g>
</svg>
